<?xml version="1.0" encoding="UTF-8" standalone="no"?>
<svg
   xmlns:dc="http://purl.org/dc/elements/1.1/"
   xmlns:cc="http://creativecommons.org/ns#"
   xmlns:rdf="http://www.w3.org/1999/02/22-rdf-syntax-ns#"
   xmlns:svg="http://www.w3.org/2000/svg"
   xmlns="http://www.w3.org/2000/svg"
   id="svg855"
   version="1.1"
   viewBox="0 0 137.64891 71.414284"
   height="71.414284mm"
   width="137.64891mm">
  <defs
     id="defs849" />
  <metadata
     id="metadata852">
    <rdf:RDF>
      <cc:Work
         rdf:about="">
        <dc:format>image/svg+xml</dc:format>
        <dc:type
           rdf:resource="http://purl.org/dc/dcmitype/StillImage" />
        <dc:title></dc:title>
      </cc:Work>
    </rdf:RDF>
  </metadata>
  <g
     transform="translate(-13.633296,-46.890739)"
     id="layer1">
    <path
       id="path1411"
       d="m 23.06673,117.98102 c -1.02681,-1.29371 -1.05311,-4.03288 -0.073,-7.60677 1.66428,-6.06872 1.33423,-8.01654 -2.13498,-12.600001 -1.71462,-2.265328 -3.75459,-5.275932 -4.28425,-6.322718 -0.66808,-1.320348 -1.98565,-5.659237 -2.48916,-8.197067 -0.35229,-1.775606 -0.46688,-3.558892 -0.45054,-7.011459 0.0195,-4.115419 0.0995,-4.924374 0.71967,-7.276041 0.38376,-1.455209 1.25248,-3.776927 1.93048,-5.159375 2.36921,-4.830855 6.61153,-8.126728 12.27117,-9.533507 3.47648,-0.864126 9.24549,-0.948221 19.71146,-0.287334 4.80218,0.303241 9.92187,0.623054 11.37708,0.710694 5.51549,0.332177 8.49291,1.340549 10.80732,3.660153 2.38696,2.392315 3.7442,5.98932 4.58345,12.147191 0.43612,3.199997 0.49227,3.380213 1.00228,3.21692 0.29716,-0.09514 1.19513,-0.227407 1.99549,-0.293928 1.26928,-0.105492 1.6337,-0.01662 2.85223,0.695584 0.8728,0.510125 1.86565,1.431515 2.64584,2.455394 3.63257,4.767191 5.49087,5.881685 8.22048,4.93014 l 0.83292,-0.290359 -0.16492,-2.950786 c -0.40627,-7.269176 1.25729,-15.647099 4.05337,-20.413287 3.20405,-5.461627 9.12254,-9.407364 15.87775,-10.585374 2.91725,-0.508727 8.51464,-0.503676 11.71983,0.01058 4.93324,0.791506 10.8894,2.648617 14.84342,4.628129 8.46659,4.238654 12.80134,10.928061 12.33388,19.033704 -0.20584,3.569319 -0.95547,6.634064 -3.39723,13.889061 -3.94659,11.726154 -4.48804,13.594025 -4.64352,16.018696 -0.16781,2.61706 0.95959,11.73297 1.67093,13.51079 0.52464,1.31122 0.25851,1.72028 -0.84601,1.30034 -2.19695,-0.83528 -4.16652,-3.33777 -6.71717,-8.53465 -1.48792,-3.03161 -2.91951,-4.78199 -4.53691,-5.54719 -2.86527,-1.35557 -6.63687,-1.57116 -14.58158,-0.8335 -7.7098,0.71585 -11.76108,0.24988 -15.22814,-1.751501 -1.77744,-1.026039 -4.87146,-3.940662 -6.01773,-5.668804 -1.85864,-2.802144 -3.58093,-7.023883 -3.97979,-9.755413 -0.15028,-1.029205 -0.26819,-1.240702 -0.61643,-1.105691 -1.13792,0.441182 -2.98579,0.449938 -4.11291,0.0195 -1.123,-0.428876 -3.09455,-2.211221 -4.41484,-3.991157 -2.62345,-3.536789 -5.19727,-4.833401 -7.36711,-3.711332 l -0.75362,0.389707 0.1423,4.308055 c 0.17359,5.255069 -0.1977,8.733321 -1.2757,11.950951 -2.03286,6.067661 -6.08627,9.878215 -12.0024,11.283295 -2.14398,0.5092 -2.95653,0.54073 -12.00526,0.46587 -10.78193,-0.0892 -11.2995,-0.0295 -14.78327,1.70428 -3.49892,1.74135 -6.3495,4.65909 -10.0759,10.31328 -1.12441,1.70611 -2.1191,3.10509 -2.21043,3.10885 -0.0913,0.004 -0.28416,-0.14199 -0.42854,-0.32389 z m 2.39459,-4.4444 c 4.17633,-6.36093 8.39756,-9.72749 13.9451,-11.12165 2.15981,-0.54278 2.59904,-0.55737 11.37469,-0.37775 8.72565,0.17859 9.23177,0.1622 11.47894,-0.3718 3.04753,-0.72418 5.20476,-1.887312 7.17414,-3.868133 2.70789,-2.723621 4.41524,-6.362933 5.14693,-10.970948 0.30821,-1.941066 0.3422,-9.132539 0.0467,-9.88382 -0.17158,-0.436261 -0.26665,-0.391935 -0.85114,0.396875 -0.36188,0.488391 -0.87743,1.234905 -1.14565,1.658919 -1.50789,2.383726 -3.83953,4.123859 -5.52565,4.123859 -0.8217,0 -0.92187,0.09068 -1.22768,1.111396 -0.44602,1.488659 -1.32043,2.726314 -2.58126,3.653541 -1.01111,0.743574 -1.29781,1.179811 -2.44602,3.721724 -0.85206,1.886292 -2.23491,3.306924 -4.12447,4.237146 -1.51891,0.74776 -2.07581,0.864624 -5.08212,1.066467 -3.88372,0.260749 -5.61589,0.0164 -7.13323,-1.006176 -0.55305,-0.372727 -1.04201,-0.772565 -1.08657,-0.888529 -0.0446,-0.115964 -0.95633,-0.144648 -2.02615,-0.06374 -1.77204,0.13402 -2.09555,0.07671 -3.63568,-0.643998 -2.08847,-0.977313 -3.32252,-2.04094 -4.59875,-3.963662 -1.46114,-2.201302 -2.23053,-4.885926 -2.20598,-7.697274 0.0268,-3.066381 0.41421,-4.093755 1.78146,-4.72398 0.045,-0.02074 -0.11921,-0.729199 -0.36491,-1.574353 -1.73274,-5.960432 2.84071,-12.501808 9.0698,-12.972481 1.24372,-0.09397 2.24449,-0.0024 3.25185,0.297903 0.80036,0.238511 1.66357,0.425688 1.91823,0.415946 2.82447,-0.108038 4.19714,-0.02617 5.09111,0.303641 0.92395,0.340868 1.17095,0.341728 1.9724,0.0069 1.23397,-0.515586 4.30838,-0.337048 5.70264,0.331165 1.57884,0.756682 3.85578,3.194103 4.95427,5.303446 1.51014,2.899823 2.14433,5.546175 2.16874,9.049835 l 0.0207,2.976343 0.74074,2.2e-4 c 1.61696,5.29e-4 2.47361,-0.763691 5.3205,-4.746091 L 74.50269,74.63498 74.01674,71.007238 C 73.18081,64.766701 72.02888,61.566129 69.7923,59.269916 67.24489,56.654592 64.93131,56.066368 54.88209,55.479033 50.95303,55.249395 46.01194,54.948337 43.90189,54.810018 30.91568,53.958737 25.26636,55.176725 20.61095,59.831526 c -3.31045,3.310017 -5.15939,7.653071 -5.80405,13.633387 -0.73578,6.825615 0.98783,15.247898 4.02819,19.683455 0.45943,0.670245 1.59017,2.171128 2.51276,3.335295 3.79569,4.789537 4.44677,7.612707 3.02039,13.096867 -0.95554,3.67389 -1.21702,5.31205 -0.9714,6.08592 0.22033,0.69421 0.18922,0.7263 2.06442,-2.1298 z m 117.40353,-3.82478 c -0.85631,-6.09927 -0.95895,-8.92414 -0.41403,-11.394158 0.25465,-1.15425 1.86778,-6.325354 3.58475,-11.491343 3.69655,-11.122163 4.08757,-12.759248 4.07616,-17.065625 -0.007,-2.767 -0.10236,-3.447 -0.73952,-5.291667 -0.88238,-2.554589 -1.91803,-4.248491 -3.86324,-6.318692 -4.07699,-4.338952 -10.4663,-7.419681 -19.66045,-9.479663 -2.30027,-0.515382 -3.45426,-0.605735 -7.73095,-0.605296 -4.42371,5.3e-4 -5.2949,0.07363 -7.25836,0.60969 -9.66807,2.63955 -15.10352,9.148223 -16.83546,20.159586 -0.4929,3.133759 -0.77806,10.575795 -0.42477,11.085349 0.20445,0.294864 0.61115,0.06872 2.00875,-1.116947 2.62366,-2.225813 3.93354,-2.913483 5.59454,-2.937058 l 1.40118,-0.0199 0.43667,-1.5875 c 0.84162,-3.05966 2.20348,-5.385001 4.44636,-7.591999 3.87832,-3.816282 6.73585,-5.206138 11.16025,-5.428173 4.88714,-0.245259 8.96502,1.270365 12.17342,4.524488 4.27861,4.339593 5.67458,10.58939 3.73064,16.702167 -1.03468,3.253581 -2.12729,5.050126 -4.51866,7.429879 -3.32882,3.312644 -6.88111,4.859493 -11.17394,4.865706 -2.96523,0.0043 -4.55339,-0.368814 -7.41605,-1.742253 -1.92658,-0.924332 -2.84928,-1.575876 -4.37111,-3.086571 -3.17076,-3.147562 -4.69617,-6.664213 -4.69617,-10.826464 v -2.333224 l -0.8599,0.0034 c -1.32433,0.0052 -3.14048,1.007748 -5.50606,3.039303 l -2.1566,1.852084 0.15484,1.323456 c 0.21346,1.824591 1.55131,5.673765 2.69553,7.755409 2.81744,5.125709 6.51162,8.049799 11.32856,8.967014 2.23584,0.425732 5.47199,0.376562 11.54154,-0.175387 3.60569,-0.32789 8.19816,-0.338283 10.12369,-0.02291 0.8386,0.137353 2.22097,0.562179 3.07192,0.944069 2.38547,1.07053 3.67581,2.59952 5.87799,6.9651 1.28806,2.55344 2.35216,4.27463 3.25024,5.25726 0.73436,0.80352 1.37558,1.33983 1.42492,1.19181 0.0493,-0.14802 -0.15617,-2.02045 -0.45668,-4.16095 z M 47.75577,95.740466 c -0.28149,-0.173342 -1.0253,-0.77651 -1.65291,-1.340368 -0.94809,-0.851795 -1.20836,-0.969386 -1.53872,-0.695209 -0.21869,0.181496 -0.39762,0.424767 -0.39762,0.540602 0,0.490813 2.65686,1.784011 3.70417,1.802963 0.28531,0.0052 0.25301,-0.08141 -0.11492,-0.307988 z m 8.52104,-0.787672 c 1.39568,-0.682885 2.8526,-2.105814 3.5507,-3.467865 0.41458,-0.808879 0.44332,-0.9975 0.13391,-0.878769 -0.21669,0.08315 -0.885,0.298297 -1.48514,0.478102 -0.7505,0.224857 -1.25842,0.597557 -1.62692,1.193811 -0.29467,0.47679 -1.21152,1.484487 -2.03744,2.239333 l -1.50167,1.372441 0.91824,-0.192063 c 0.50503,-0.105635 1.42678,-0.440881 2.04832,-0.74499 z m -3.94819,0.152841 c 0.91636,-0.428712 3.74415,-3.052288 3.74415,-3.473751 0,-0.108834 -0.55433,-0.346139 -1.23184,-0.527347 -1.16598,-0.311851 -1.26855,-0.295121 -1.91823,0.312891 -0.99579,0.931924 -2.775,1.757916 -4.6257,2.147475 l -1.61693,0.340355 1.71979,0.825958 c 1.97037,0.946303 2.58183,1.004575 3.92876,0.374419 z M 41.91757,93.176339 c -0.29044,-0.561645 -0.60439,-0.79375 -1.07363,-0.79375 -1.83172,0 -4.46036,-2.087568 -5.41089,-4.297135 -0.45401,-1.055383 -0.58866,-1.868046 -0.57986,-3.499657 0.01,-1.828001 -0.0995,-2.358411 -0.78242,-3.794112 -1.37303,-2.886631 -2.21621,-1.692534 -2.01926,2.859654 0.14715,3.401263 1.22308,5.792356 3.58948,7.977047 1.80831,1.669463 3.22274,2.289863 5.29118,2.320814 l 1.39586,0.02089 z m 9.31288,-1.74103 c 0.61095,-0.355574 1.18841,-0.77207 1.28327,-0.925547 0.32887,-0.532127 -0.13205,-0.577622 -0.82307,-0.08124 -0.38196,0.274373 -1.24888,0.834586 -1.92649,1.244912 -1.06825,0.646888 -1.12651,0.723609 -0.43826,0.577213 0.43656,-0.09286 1.29361,-0.459761 1.90455,-0.815335 z m -2.36976,-0.38326 c 0.88203,-0.440756 1.71374,-0.946771 1.84825,-1.124479 0.17031,-0.225015 -0.18407,-0.730229 -1.1673,-1.664128 L 48.1298,86.92242 47.86753,87.896417 c -0.14425,0.535697 -0.55331,1.402858 -0.90901,1.927024 -1.28252,1.889892 -1.31442,2.029981 -0.46232,2.029981 0.41844,0 1.48246,-0.360619 2.36449,-0.801373 z m 71.69811,0.28592 c 2.23859,-0.42454 4.30068,-1.571837 6.18671,-3.442134 3.33748,-3.309633 4.8904,-8.22397 3.92375,-12.417004 -1.00065,-4.34049 -4.88395,-8.240956 -9.36732,-9.408724 -5.82416,-1.517002 -12.35158,1.492544 -15.00438,6.917949 -0.80545,1.647288 -0.87847,2.001454 -0.86202,4.180991 0.013,1.716051 0.17495,2.824718 0.5799,3.96875 0.47834,1.351375 0.50758,1.642729 0.19657,1.958816 -0.54646,0.555382 0.62481,2.677769 2.52815,4.581115 3.05755,3.057544 7.59188,4.461828 11.81864,3.660241 z m -81.20373,-1.1938 c -0.61344,-0.870284 -0.86317,-1.558325 -0.95129,-2.620867 -0.10623,-1.281047 -0.24746,-1.566389 -1.27386,-2.573724 -0.63491,-0.62312 -1.23081,-1.056519 -1.32422,-0.963107 -0.3504,0.350395 0.20958,3.020435 0.89861,4.284649 0.64286,1.179512 2.63361,3.053135 3.244,3.053135 0.13121,0 -0.13575,-0.53104 -0.59324,-1.180086 z m 4.14139,0.452482 c -0.10905,-0.400182 -0.27122,-1.134544 -0.36037,-1.631915 -0.31006,-1.729706 -1.07367,-1.082532 -1.08262,0.91754 -0.004,0.922703 0.40507,1.441979 1.13632,1.441979 0.42251,0 0.47257,-0.118768 0.30667,-0.727604 z m 1.16127,-1.441561 c -0.46921,-0.850971 -0.62354,-0.0395 -0.19007,0.999382 0.29847,0.715327 0.33007,0.729575 0.42417,0.191243 0.0559,-0.319913 -0.0494,-0.855694 -0.2341,-1.190625 z m 85.41622,-0.873543 c 1.70806,-1.877462 3.41068,-5.181105 3.81808,-7.408333 0.56984,-3.115255 -0.23078,-7.034636 -2.07527,-10.159397 -2.54608,-4.313306 -6.83386,-7.092696 -11.6209,-7.532799 -1.53925,-0.141515 -1.54154,-0.140679 -0.3585,0.131165 5.4964,1.262994 9.65156,4.259892 11.6921,8.432906 1.23334,2.522262 1.65808,4.707929 1.45605,7.492717 -0.26954,3.715393 -1.87316,7.329471 -4.42954,9.982901 -1.12215,1.164746 -1.30517,1.447268 -0.71665,1.106278 0.4347,-0.251865 1.44028,-1.172313 2.23463,-2.045438 z m -73.08472,1.124479 c 0.19896,-0.472942 0.32623,-0.895546 0.28283,-0.93912 -0.0434,-0.04357 -0.52621,0.224319 -1.0729,0.595313 -0.54669,0.370996 -1.09643,0.674536 -1.22164,0.674536 -0.12522,0 -0.22766,0.119063 -0.22766,0.264584 0,0.145521 0.42246,0.264583 0.93881,0.264583 0.80858,0 0.989,-0.119285 1.30056,-0.859896 z m 2.9693,-0.02725 c 0.0421,-0.04207 -0.2676,-0.330872 -0.68814,-0.641794 l -0.76462,-0.565312 -0.15704,0.625671 c -0.0864,0.34412 -0.23297,0.823569 -0.32579,1.065443 -0.15653,0.407913 -0.0953,0.40908 0.84518,0.01611 0.55766,-0.233005 1.04835,-0.458065 1.09041,-0.500129 z m 68.30813,-1.295664 c 0.99337,-1.191176 0.51516,-0.830578 -1.03001,0.776684 -0.81073,0.843317 -1.03547,1.163021 -0.51147,0.727604 0.51409,-0.427175 1.20775,-1.104106 1.54148,-1.504288 z m -81.77777,0.75117 c 0.15986,-0.35084 0.37198,-1.071406 0.47137,-1.601261 l 0.18074,-0.963369 -1.02422,0.695053 c -1.14439,0.776605 -1.14167,0.769024 -0.63937,1.779865 0.44395,0.893416 0.63747,0.910579 1.01148,0.08971 z m 8.4139,-1.519505 c 0.896,-1.768181 0.79777,-2.225939 -0.13041,-0.607726 -0.42145,0.734753 -0.9548,1.492385 -1.18523,1.683623 -0.23043,0.191241 -0.35015,0.459062 -0.26603,0.595162 0.24097,0.389905 0.87875,-0.283917 1.58167,-1.671059 z m -13.64668,0.850096 c 0,-0.519094 -0.44737,-0.979363 -0.70322,-0.723508 -0.20777,0.207766 0.17203,1.237059 0.45646,1.237059 0.13572,0 0.24676,-0.231098 0.24676,-0.513551 z m 13.0752,-2.668558 c 0.82604,-1.517706 1.15398,-3.61102 0.69891,-4.46133 -0.4191,-0.783093 -1.43949,-1.153089 -2.19964,-0.797592 -0.86259,0.403402 -2.01111,2.014339 -2.21643,3.108809 -0.20981,1.118389 0.23699,2.970591 1.02361,4.243369 l 0.56272,0.9105 0.71251,-0.853477 c 0.39188,-0.469413 1.03013,-1.437039 1.41832,-2.150279 z m 2.95873,0.440184 c -0.0834,-0.310951 -0.16088,-0.803492 -0.17208,-1.094533 -0.0161,-0.418682 -1.27195,2.801932 -1.28963,3.307291 -0.003,0.07276 0.35943,-0.268136 0.80439,-0.757549 0.56981,-0.626727 0.76417,-1.057016 0.65732,-1.455209 z m -7.22585,0.82839 c -0.24643,-0.615884 -0.45382,-1.746862 -0.46088,-2.513283 -0.0135,-1.471602 -0.12578,-1.569183 -1.40931,-1.225312 -0.72764,0.194943 -0.6256,0.712108 0.48875,2.47713 1.67997,2.660901 2.09188,3.037038 1.38144,1.261465 z M 60.7851,86.37271 c -0.0726,-0.868595 -0.18037,-1.002721 -0.92766,-1.154271 -0.61039,-0.123788 -0.88605,-0.06588 -0.99124,0.208214 -0.27808,0.724667 0.73371,1.899446 1.65432,1.920808 0.2394,0.0056 0.32128,-0.296108 0.26458,-0.974751 z m 1.89032,-1.464598 c 0.0134,-0.814322 -0.12492,-0.893133 -0.64846,-0.369592 -0.24736,0.247365 -0.30937,0.71755 -0.20064,1.521355 l 0.15737,1.163341 0.3399,-0.79375 c 0.18694,-0.436563 0.34527,-1.121172 0.35183,-1.521354 z m 66.79698,1.748514 c 0.13935,-0.363135 0.10063,-0.379502 -0.23628,-0.0999 -0.45911,0.381035 -0.5069,0.534194 -0.16665,0.534194 0.12995,0 0.31127,-0.195434 0.40293,-0.434298 z M 43.21825,85.450502 c 0.0933,-0.583528 0.34652,-1.402961 0.56267,-1.820963 0.37888,-0.732671 0.36887,-0.766064 -0.27823,-0.928476 -0.56224,-0.141115 -0.86319,0.03765 -1.85338,1.100947 -1.59664,1.714532 -1.70642,2.148957 -0.65475,2.59115 1.36457,0.573759 2.02605,0.293351 2.22369,-0.942658 z m 2.10489,0.826154 c 1.17539,-0.924563 1.31285,-1.434918 0.60738,-2.255071 -0.34268,-0.398396 -0.75207,-0.637378 -0.91711,-0.535373 -0.58361,0.360685 -1.13485,3.340129 -0.61799,3.340129 0.1259,0 0.54337,-0.247359 0.92772,-0.549685 z m 85.11063,-1.328039 c 0.30415,-0.596183 0.50762,-1.129353 0.45216,-1.18482 -0.0555,-0.05546 -0.35989,0.432323 -0.67648,1.083974 -0.72107,1.484175 -0.52611,1.571818 0.22432,0.100846 z m -91.55891,-0.36444 c 0,-0.06902 -0.38696,-0.323437 -0.8599,-0.565362 l -0.85989,-0.439867 0.50402,0.565364 c 0.44597,0.500232 1.21577,0.778746 1.21577,0.439865 z m 21.43125,-0.40367 c 0,-0.14552 -0.12609,-0.264583 -0.2802,-0.264583 -0.15411,0 -0.20662,0.119063 -0.11668,0.264583 0.0899,0.145521 0.21603,0.264584 0.2802,0.264584 0.0642,0 0.11668,-0.119063 0.11668,-0.264584 z m 1.95822,-2.21969 c -0.23488,-0.768434 -1.91992,-2.807393 -2.32009,-2.807393 -0.40426,0 -1.49168,2.183114 -1.48617,2.98364 0.006,0.868352 0.33289,1.2685 0.79669,0.975196 0.60057,-0.379799 1.4779,-0.300238 1.86764,0.169371 0.31851,0.38378 0.39753,0.367717 0.83228,-0.169167 0.30538,-0.377132 0.41817,-0.796621 0.30965,-1.151647 z m -21.69621,0.394774 1.0069,-1.031165 -0.55633,-0.556335 c -0.55012,-0.550116 -0.98198,-0.670546 -2.01154,-0.560929 -0.75964,0.08088 -0.77777,0.151138 -0.29922,1.1596 0.23733,0.500139 0.43151,1.15924 0.43151,1.464669 0,0.790721 0.28442,0.695992 1.42868,-0.47584 z m 16.73821,0.171271 c -0.0734,-0.181901 -0.13345,-0.03307 -0.13345,0.330729 0,0.363802 0.0601,0.51263 0.13345,0.330729 0.0734,-0.181901 0.0734,-0.479557 0,-0.661458 z m 6.70394,0.06615 c 0,-0.436562 -0.11906,-0.79375 -0.26458,-0.79375 -0.29429,0 -0.36518,1.134132 -0.0882,1.411111 0.29891,0.298918 0.35277,0.204665 0.35277,-0.617361 z m 67.44611,-0.264583 c -0.01,-0.261689 -0.092,-0.216625 -0.24194,0.132292 -0.31256,0.727363 -0.31256,1.145108 0,0.661458 0.14107,-0.218281 0.24994,-0.575469 0.24194,-0.79375 z M 49.27289,81.637344 c 1.05276,-0.530257 2.56655,-1.943995 2.56655,-2.396919 0,-0.779706 -4.28894,0.835882 -4.8814,1.838759 -0.55396,0.937731 0.87648,1.282642 2.31485,0.55816 z M 37.54663,81.395985 C 37.36256,81.174188 37.14307,81.0616 37.05888,81.14579 c -0.0842,0.08419 0.0221,0.263837 0.23614,0.399217 0.56011,0.354227 0.6333,0.310882 0.25161,-0.149022 z m 27.98045,-2.705584 c -0.0763,-1.564349 -0.36916,-3.682957 -0.65089,-4.708019 -1.42131,-5.171464 -5.02975,-8.900944 -8.67112,-8.961991 -0.72761,-0.0122 -1.54408,0.06829 -1.81437,0.178866 -0.44636,0.182597 -0.40588,0.29577 0.44118,1.233364 0.51295,0.567774 1.0583,1.267121 1.21189,1.554101 0.16255,0.303731 0.69174,0.599168 1.2663,0.706956 2.53836,0.4762 4.35369,2.079773 5.95113,5.256943 1.36942,2.723626 1.80099,4.173569 1.80454,6.062697 0.002,0.951606 0.11468,1.521354 0.30144,1.521354 0.21178,0 0.25826,-0.826717 0.1599,-2.844271 z m -21.76582,1.799514 c 0.0638,-0.103302 -0.057,-0.762852 -0.2685,-1.465668 -0.21151,-0.702813 -0.38424,-1.824466 -0.38383,-2.492563 5.2e-4,-0.668096 -0.23148,-1.69097 -0.5153,-2.273054 -0.28381,-0.582083 -0.57807,-1.266692 -0.65389,-1.521354 -0.30766,-1.033327 -3.31512,-0.150529 -4.90563,1.439979 -1.8238,1.823805 -2.09726,3.92063 -0.62324,4.778997 0.70132,0.408403 1.01455,0.444971 1.86042,0.217202 1.36259,-0.366906 2.82627,0.05153 3.53541,1.0107 0.4095,0.553879 0.71001,0.709303 1.19294,0.616987 0.35504,-0.06787 0.69777,-0.207923 0.76162,-0.311226 z m 1.32315,-1.559119 c -0.39815,-1.914646 -0.6533,-2.363695 -0.6533,-1.149741 0,0.745088 0.75387,3.096921 0.93109,2.904699 0.0391,-0.04242 -0.0859,-0.832149 -0.27779,-1.754958 z m 12.84045,1.507141 c 0,-0.541329 1.4447,-2.606471 1.82373,-2.606958 0.20269,-2.62e-4 0.96384,0.594839 1.69144,1.322443 0.72761,0.727604 1.37964,1.322917 1.44898,1.322917 0.0693,0 0.0747,-1.101328 0.012,-2.447396 -0.12804,-2.748349 -0.46298,-3.605623 -2.00003,-5.119055 -0.98927,-0.974056 -3.15361,-2.487716 -3.55712,-2.487716 -0.11703,0 -0.21278,0.837195 -0.21278,1.860431 0,1.174303 -0.19962,2.452992 -0.54127,3.467164 -0.51989,1.543266 -0.52373,1.660511 -0.0973,2.968214 0.2442,0.748816 0.56188,1.510311 0.70596,1.692212 0.32774,0.413755 0.72635,0.428979 0.72635,0.02774 z m -8.47322,-2.77472 c -0.87765,-0.375724 -1.83684,-1.575178 -2.02934,-2.537669 -0.16083,-0.804153 -0.49477,-0.905647 -1.20526,-0.366313 -0.53932,0.409403 -0.60864,1.837063 -0.18508,3.812046 l 0.27794,1.295987 1.92077,-0.952236 c 1.88635,-0.935177 1.90822,-0.957601 1.22097,-1.251815 z m 6.09197,1.108946 c 0,-0.06417 -0.11907,-0.190262 -0.26459,-0.280199 -0.14552,-0.08994 -0.26458,-0.03743 -0.26458,0.116676 0,0.154109 0.11906,0.280199 0.26458,0.280199 0.14552,0 0.26459,-0.0525 0.26459,-0.116676 z M 35.45594,74.489768 c 1.06524,-1.723586 2.83071,-2.809277 5.12859,-3.153865 1.29227,-0.193789 1.50211,-0.469244 0.68897,-0.904423 -1.54149,-0.824979 -4.34232,0.17122 -5.75768,2.047896 -1.00734,1.335659 -1.40643,2.611131 -1.38457,4.425088 l 0.0159,1.322916 0.38546,-1.433679 c 0.212,-0.788524 0.62749,-1.825294 0.9233,-2.303933 z m 19.29392,2.811571 c 0,-0.145521 -0.11204,-0.264584 -0.24897,-0.264584 -0.13693,0 -0.32255,0.119063 -0.41249,0.264584 -0.0899,0.145521 0.0221,0.264583 0.24897,0.264583 0.22687,0 0.41249,-0.119062 0.41249,-0.264583 z M 50.77821,76.17686 c -0.28836,-0.472943 -0.52474,-1.187318 -0.52528,-1.5875 -7.9e-4,-0.675521 -0.0788,-0.727605 -1.08801,-0.727605 -1.05072,0 -1.08133,0.02429 -0.91674,0.727605 0.21022,0.898347 1.80849,2.447395 2.52515,2.447395 0.52816,0 0.52817,-0.0016 0.005,-0.859895 z m 2.3425,-0.199544 c 0.0601,-0.411856 -0.11817,-0.78174 -0.52917,-1.097873 -1.28225,-0.9863 -1.73318,-0.27882 -0.72485,1.137246 0.63207,0.887664 1.12097,0.872315 1.25402,-0.03937 z m -18.2343,-4.403484 c 0.81072,-1.03604 2.54077,-2.162609 3.63683,-2.368233 0.89017,-0.166997 2.19498,-0.04784 3.00696,0.274596 0.30614,0.121568 0.48307,-0.125344 0.71724,-1.00088 0.20368,-0.761513 0.73073,-1.594265 1.52858,-2.415193 0.66974,-0.689115 1.14073,-1.329917 1.04664,-1.424006 -0.0941,-0.09409 -1.20294,-0.171069 -2.46412,-0.171069 -1.92472,0 -2.53191,0.111996 -3.78002,0.697222 -2.01982,0.947074 -3.42327,2.280962 -4.47391,4.252156 -0.74097,1.390205 -0.89609,1.988058 -0.97952,3.775165 l -0.0991,2.123374 0.63491,-1.494174 c 0.3492,-0.821796 0.90069,-1.833827 1.22554,-2.248958 z m 20.12398,1.927071 c 0.004,-1.06109 -0.93806,-3.0818 -1.43373,-3.07468 -0.15511,0.0021 -0.44771,0.108982 -0.65024,0.237228 -0.3045,0.192826 -0.2749,0.364233 0.17108,0.99056 0.29662,0.416563 0.68275,1.292077 0.85806,1.945587 0.17531,0.653511 0.3811,1.290207 0.4573,1.414883 0.24842,0.406432 0.59338,-0.467381 0.59753,-1.513578 z m -2.11262,-0.0067 c 0,-0.202158 -0.2357,-0.648642 -0.52379,-0.992188 -0.44702,-0.533077 -0.56276,-0.566457 -0.7897,-0.227748 -0.42886,0.640096 -0.32024,0.937911 0.4536,1.243696 0.40018,0.15813 0.75737,0.300177 0.79375,0.315658 0.0364,0.01548 0.0661,-0.137258 0.0661,-0.339418 z m -9.26041,-0.706385 c 0,-0.136932 -0.11907,-0.248967 -0.26459,-0.248967 -0.14552,0 -0.26458,0.185621 -0.26458,0.41249 0,0.22687 0.11906,0.338905 0.26458,0.248968 0.14552,-0.08994 0.26459,-0.275558 0.26459,-0.412491 z m 1.97784,0.0362 c 0.19224,-0.605708 2.11642,-2.398313 2.58698,-2.41009 0.18148,-0.0045 0.80622,-0.313224 1.3883,-0.685964 l 1.05834,-0.677706 -0.97867,0.13797 c -2.09035,0.29469 -4.70988,2.264306 -4.70988,3.541347 0,0.733957 0.43218,0.796277 0.65493,0.09444 z m 1.73845,-0.04324 c 0.43247,-0.80807 0.13379,-0.900909 -0.37926,-0.117888 -0.24135,0.368345 -0.3212,0.669716 -0.17744,0.669716 0.14375,0 0.39427,-0.248322 0.5567,-0.551828 z m 3.13394,-0.680961 c 0.25619,-0.562274 0.25143,-0.747488 -0.0237,-0.921991 -0.51309,-0.325454 -0.66894,-0.281845 -1.26,0.352586 -0.75814,0.813763 -0.68173,1.273027 0.2118,1.273027 0.55662,0 0.83435,-0.182316 1.07188,-0.703622 z m 5.61295,-0.723985 c -0.0986,-0.797742 -0.33305,-1.403958 -0.61039,-1.578142 -0.67121,-0.42155 -0.84732,-0.03962 -0.37101,0.804619 0.23146,0.410255 0.54405,1.089856 0.69464,1.510221 0.37714,1.052772 0.47638,0.797825 0.28676,-0.736698 z m 74.61757,0.827884 c -0.26131,-0.25936 -0.2917,-0.22897 -0.14812,0.148114 0.0994,0.260937 0.24731,0.407781 0.32877,0.326318 0.0815,-0.08146 1.7e-4,-0.294955 -0.18065,-0.474432 z m -0.73437,-1.24896 c -0.25678,-0.434692 -1.18264,-1.476489 -2.05747,-2.315105 l -1.5906,-1.524754 1.6022,1.719792 c 0.88122,0.945885 1.745,1.987682 1.91953,2.315104 0.17453,0.327422 0.3794,0.595313 0.45527,0.595313 0.0759,0 -0.0721,-0.355658 -0.32893,-0.79035 z M 46.37548,69.39138 c 0.61077,-0.420221 1.61771,-0.916006 2.23765,-1.101746 l 1.12717,-0.337709 -0.82661,-0.852847 c -0.45464,-0.469069 -1.22291,-1.066268 -1.70726,-1.32711 -0.86657,-0.466678 -0.89511,-0.464347 -1.7857,0.145894 -1.07103,0.733882 -1.96391,1.965825 -2.31694,3.196767 -0.22445,0.782611 -0.1722,0.973569 0.44182,1.614458 l 0.69638,0.726864 0.5115,-0.650267 c 0.28132,-0.357645 1.01121,-0.994082 1.62199,-1.414304 z m 5.72854,0.498105 c 0,-0.116327 -0.23678,-0.149585 -0.52619,-0.0739 -0.2894,0.07568 -0.46418,0.237929 -0.3884,0.36055 0.16095,0.260421 0.91459,0.02421 0.91459,-0.286647 z m 2.53157,-2.198272 c -0.3687,-0.483391 -0.98251,-1.045948 -1.36402,-1.250127 -0.65637,-0.35128 -0.73708,-0.322639 -1.50142,0.532807 l -0.80776,0.904039 0.90155,0.325959 c 0.49585,0.179276 1.47315,0.335015 2.17178,0.346085 l 1.27023,0.02014 -0.67036,-0.878893 z m 75.89723,-0.774753 c -1.06185,-1.18482 -2.27112,-2.183911 -3.15484,-2.606508 -0.29656,-0.141817 -0.23841,-0.04882 0.13229,0.211558 0.36381,0.255532 1.37584,1.149691 2.24896,1.987018 0.87313,0.837327 1.63112,1.524661 1.68443,1.52741 0.0533,0.0028 -0.35656,-0.501015 -0.91084,-1.119478 z M 51.15621,65.316678 C 50.9516,65.20078 50.15842,65.039567 49.39359,64.958424 l -1.39061,-0.147529 1.19063,1.062379 1.19062,1.062379 0.572,-0.704128 c 0.46858,-0.576823 0.50473,-0.742225 0.19998,-0.914847 z m 74.2374,1.278361 c 0,-0.06764 -0.26789,-0.252802 -0.59532,-0.41147 -0.57166,-0.277029 -0.57491,-0.272145 -0.0817,0.122981 0.53982,0.432486 0.67704,0.490953 0.67704,0.288489 z"
       style="fill:#532b6d;fill-opacity:1;stroke-width:0.26458332" />
  </g>
</svg>
