<?xml version="1.0" encoding="UTF-8" standalone="no"?>
<svg
   xmlns:dc="http://purl.org/dc/elements/1.1/"
   xmlns:cc="http://creativecommons.org/ns#"
   xmlns:rdf="http://www.w3.org/1999/02/22-rdf-syntax-ns#"
   xmlns:svg="http://www.w3.org/2000/svg"
   xmlns="http://www.w3.org/2000/svg"
   xmlns:sodipodi="http://sodipodi.sourceforge.net/DTD/sodipodi-0.dtd"
   xmlns:inkscape="http://www.inkscape.org/namespaces/inkscape"
   id="svg820"
   version="1.1"
   viewBox="0 0 150 89.641579"
   height="89.641579mm"
   width="150mm"
   sodipodi:docname="diagnosis.svg"
   inkscape:version="0.92.5 (2060ec1f9f, 2020-04-08)">
  <sodipodi:namedview
     pagecolor="#ffffff"
     bordercolor="#666666"
     borderopacity="1"
     objecttolerance="10"
     gridtolerance="10"
     guidetolerance="10"
     inkscape:pageopacity="0"
     inkscape:pageshadow="2"
     inkscape:window-width="1920"
     inkscape:window-height="1016"
     id="namedview7"
     showgrid="false"
     inkscape:zoom="0.69657036"
     inkscape:cx="127.56223"
     inkscape:cy="169.40141"
     inkscape:window-x="0"
     inkscape:window-y="0"
     inkscape:window-maximized="1"
     inkscape:current-layer="svg820" />
  <defs
     id="defs814" />
  <metadata
     id="metadata817">
    <rdf:RDF>
      <cc:Work
         rdf:about="">
        <dc:format>image/svg+xml</dc:format>
        <dc:type
           rdf:resource="http://purl.org/dc/dcmitype/StillImage" />
        <dc:title></dc:title>
      </cc:Work>
    </rdf:RDF>
  </metadata>
  <g
     transform="translate(31.760923,-6.5756059)"
     id="layer1">
    <path
       id="path1376"
       d="m 20.879288,95.970316 c 0.05989,-0.16639 4.020359,-0.57916 26.148342,-2.72522 8.974249,-0.870362 17.827422,-1.736377 19.673719,-1.924481 1.846299,-0.188104 5.122249,-0.516601 7.279888,-0.73 2.157641,-0.213395 3.975776,-0.412842 4.0403,-0.443208 0.06453,-0.03037 -0.584299,-5.542209 -1.441834,-12.248531 -2.789974,-21.818941 -2.974367,-23.066009 -3.369794,-22.790173 -0.261676,0.18254 -0.266382,0.09999 -0.01681,-0.294854 0.33906,-0.536413 0.283215,-1.666001 -0.226193,-4.575085 l -0.229872,-1.312738 -0.818177,1.28874 c -0.449997,0.708806 -0.8506,1.219851 -0.890229,1.135653 -0.03963,-0.0842 0.251067,-0.645267 0.646002,-1.246812 L 72.392687,49.009884 70.352876,31.178431 C 68.534408,15.28188 68.253526,13.344706 67.764349,13.326026 c -0.30179,-0.01153 -2.88564,0.198136 -5.741878,0.465913 -6.483659,0.607851 -9.431736,0.688456 -8.399001,0.229643 0.435465,-0.193464 11.901198,-1.287119 13.764635,-1.312935 0.826761,-0.01145 1.530143,0.03642 1.563071,0.106379 0.101288,0.215203 0.921232,7.496867 2.205174,19.583423 0.67476,6.35195 1.769159,15.350597 2.431998,19.996994 0.66284,4.646397 2.012969,14.369791 3.000288,21.607544 0.987318,7.237751 1.912224,13.849802 2.055343,14.693444 0.143123,0.843642 0.222678,1.638202 0.17679,1.765691 -0.07541,0.209498 -1.962156,0.416318 -11.710037,1.28362 -1.677659,0.149266 -3.28094,0.307451 -3.562842,0.351519 -0.848367,0.132623 -39.059376,3.943355 -40.732988,4.062245 -1.573988,0.11182 -2.027988,0.0674 -1.935614,-0.18919 z M 15.635051,58.390298 c -2.42568,-20.437774 -4.361409,-37.2955 -4.301617,-37.461618 0.07452,-0.207023 0.177214,-0.147852 0.326471,0.1881 0.119766,0.269576 1.508129,11.394155 3.08525,24.721288 1.577123,13.327133 3.557614,30.015682 4.401093,37.085667 0.864084,7.242689 1.395105,12.804661 1.216365,12.740331 -0.174478,-0.0628 -2.301883,-16.835996 -4.727562,-37.273768 z m 9.763023,32.056863 c 0.393298,-0.09091 0.421957,-0.37588 0.197434,-1.963336 -0.144455,-1.02135 -0.701619,-5.431588 -1.238147,-9.80053 -0.842556,-6.860965 -1.032618,-7.86828 -1.39461,-7.391381 -0.369055,0.4862 -0.37367,0.467749 -0.03863,-0.154504 0.282429,-0.524526 0.279441,-1.667051 -0.01157,-4.433072 -0.21563,-2.049532 -0.474231,-3.755999 -0.574672,-3.792152 -0.100438,-0.03615 -0.300366,0.113334 -0.44428,0.332189 -0.143914,0.218856 -0.06122,-0.0045 0.183727,-0.49627 0.724721,-1.454782 0.04646,-1.185135 -0.912393,0.362728 -0.486315,0.785054 -0.881111,1.296856 -0.877322,1.137337 0.0038,-0.159517 0.417856,-0.924637 0.920151,-1.700261 0.819423,-1.265331 0.901673,-1.507828 0.800489,-2.360097 l -0.112766,-0.949864 -0.416657,0.553031 c -0.337115,0.447455 -0.339272,0.392995 -0.0113,-0.285266 0.396628,-0.820247 0.426352,-2.658545 0.0452,-2.795735 -0.105773,-0.03807 -0.454597,0.417401 -0.775167,1.012163 -0.32057,0.594761 -0.61959,1.003327 -0.664493,0.907928 -0.0449,-0.0954 0.266881,-0.741662 0.692847,-1.436132 L 21.540401,55.93126 19.614494,39.713665 c -1.67601,-14.113301 -1.968212,-17.44628 -1.410803,-16.092232 0.06976,0.169459 1.907508,15.184806 4.083886,33.367441 2.176378,18.182634 3.964991,33.109154 3.974697,33.17004 0.0097,0.06088 4.241597,-0.270659 9.404209,-0.736787 5.162613,-0.466126 13.110405,-1.173781 17.66176,-1.572568 4.551354,-0.398788 9.259669,-0.823496 10.462923,-0.943801 1.203254,-0.120305 3.265091,-0.31153 4.581861,-0.424949 1.31677,-0.113417 2.415203,-0.264765 2.440959,-0.336325 0.09654,-0.268212 -7.70326,-67.255538 -7.876576,-67.646724 -0.03369,-0.07602 -1.995006,0.0089 -4.3585,0.18872 -2.363492,0.179819 -4.431596,0.27859 -4.59579,0.219491 -0.71944,-0.258953 0.387765,-0.451441 4.48795,-0.780234 3.317698,-0.266045 4.461434,-0.255965 4.708103,0.0415 0.354728,0.427777 8.185512,64.760171 8.152753,66.977461 -0.0169,1.143919 -0.09134,1.387697 -0.474528,1.553997 -0.249967,0.108482 -10.313553,1.045406 -22.363527,2.08205 -12.049975,1.036647 -22.05055,1.94397 -22.223504,2.016279 -0.172955,0.07231 -0.543497,0.04709 -0.823431,-0.05604 -0.419469,-0.154171 -0.427966,-0.206225 -0.0489,-0.293834 z m 9.971772,-11.471668 c 1.537409,-0.418075 12.112654,-1.428464 12.499647,-1.194252 0.2513,0.152094 -1.099518,0.443592 -3.41697,0.737367 -6.159968,0.780882 -11.207904,1.034805 -9.082677,0.456885 z M 22.407641,74.07683 c -0.09069,-0.215773 -0.01133,-0.581091 0.176348,-0.811816 0.296443,-0.364443 0.331151,-0.318621 0.264431,0.349082 -0.0888,0.888637 -0.208816,1.014633 -0.440779,0.462734 z M 22.043745,72.4843 c 0.116335,-0.285711 0.196553,-0.323469 0.204542,-0.09627 0.0072,0.205593 -0.0789,0.41713 -0.191391,0.47008 -0.1125,0.05295 -0.118414,-0.115264 -0.01314,-0.373807 z m 12.125384,2.566949 c 0.130593,-0.103835 2.849922,-0.506176 6.042948,-0.8941 3.193029,-0.387925 6.454496,-0.798887 7.247707,-0.913248 1.452229,-0.209376 2.335098,-0.106948 1.920358,0.222794 -0.334462,0.265919 -14.594878,2.080569 -15.05334,1.915552 -0.217315,-0.07822 -0.288269,-0.227169 -0.157673,-0.330998 z M 18.408864,66.957968 c 0.116335,-0.285711 0.196553,-0.323469 0.204541,-0.09627 0.0072,0.205592 -0.0789,0.417129 -0.191391,0.47008 -0.1125,0.05295 -0.118414,-0.115264 -0.01314,-0.373808 z m 2.240533,0.806449 c 0.116336,-0.285711 0.196553,-0.323468 0.204541,-0.09627 0.0072,0.205593 -0.0789,0.41713 -0.19139,0.47008 -0.1125,0.05295 -0.118414,-0.115264 -0.01315,-0.373808 z m -1.610654,-1.681102 c 0.09857,-0.273843 0.369714,-0.745678 0.602542,-1.048525 0.335206,-0.436006 0.386026,-0.446984 0.244121,-0.05273 -0.09857,0.273844 -0.369714,0.745678 -0.602542,1.048525 -0.335207,0.436006 -0.386027,0.446985 -0.244121,0.05273 z m 2.275012,0.678259 c 0.123207,-0.342304 0.230121,-0.461997 0.237573,-0.265989 0.0075,0.19601 -0.09335,0.476076 -0.224013,0.62237 -0.130666,0.146294 -0.136767,-0.01408 -0.01356,-0.356381 z m 10.933124,3.876507 c 0.136948,-0.380477 17.773164,-2.710795 17.933738,-2.36963 0.0547,0.116223 -0.04131,0.274239 -0.213343,0.351158 -0.172034,0.07692 -4.257145,0.63934 -9.078024,1.249829 -5.448817,0.690007 -8.718749,0.980831 -8.642375,0.768642 z m -11.46814,-4.795512 c 0.116335,-0.285711 0.196553,-0.323468 0.204542,-0.09627 0.0072,0.205593 -0.0789,0.417129 -0.191391,0.47008 -0.1125,0.05295 -0.118414,-0.115264 -0.01314,-0.373807 z m 0.60737,-0.906187 c 0.116335,-0.285711 0.196552,-0.323468 0.204541,-0.09627 0.0072,0.205592 -0.0789,0.417129 -0.19139,0.47008 -0.1125,0.05295 -0.118413,-0.115264 -0.01314,-0.373807 z m -0.318685,-0.677108 c 0.116335,-0.285711 0.196553,-0.323468 0.204541,-0.09627 0.0072,0.205593 -0.0789,0.417129 -0.191391,0.470081 -0.1125,0.05295 -0.118414,-0.115265 -0.01314,-0.373808 z m 37.268821,10.352433 c -0.235394,-2.167773 -0.115903,-2.326922 1.90772,-2.540886 2.070748,-0.218943 2.335659,0.0099 2.509048,2.167307 0.08379,1.042531 0.05617,1.97197 -0.06136,2.065418 -0.117533,0.09345 -0.83785,0.154411 -1.600697,0.135476 -0.762847,-0.01893 -1.488178,0.04602 -1.611843,0.144342 -0.562768,0.447434 -0.953357,-0.226405 -1.142868,-1.971657 z m 3.725073,1.192383 c 0.237933,0.08564 0.282379,-0.342024 0.154947,-1.490833 -0.195962,-1.76656 -0.477213,-2.018181 -2.037821,-1.823142 -1.67673,0.209552 -1.739085,0.272762 -1.476442,1.496649 0.131743,0.613911 0.241262,1.337067 0.243377,1.607013 0.0035,0.450534 0.117852,0.474373 1.393075,0.290518 0.764073,-0.110162 1.539365,-0.146253 1.722864,-0.08021 z M 19.952024,61.889399 c 0.116335,-0.285711 0.196553,-0.323468 0.204542,-0.09627 0.0072,0.205592 -0.0789,0.417127 -0.19139,0.47008 -0.1125,0.05295 -0.118415,-0.115264 -0.01315,-0.373807 z m 11.812252,4.230103 c 0.352518,-0.120013 5.565152,-0.781043 11.583632,-1.468958 7.222135,-0.825495 11.064977,-1.142448 11.302351,-0.932207 0.373311,0.330638 -2.092147,0.659779 -16.099458,2.149297 -6.434893,0.684278 -8.255089,0.751831 -6.786525,0.251868 z M 20.616382,60.886556 c 0.123208,-0.342304 0.230112,-0.462 0.237574,-0.265989 0.0075,0.19601 -0.09335,0.476076 -0.224014,0.62237 -0.130666,0.146294 -0.136766,-0.01408 -0.01356,-0.356381 z m -1.192255,-1.43677 c 0.116336,-0.285711 0.196553,-0.323468 0.204542,-0.09627 0.0072,0.205593 -0.0789,0.417127 -0.19139,0.47008 -0.1125,0.05295 -0.118415,-0.115264 -0.01315,-0.373807 z m 12.167281,2.853112 c 0.101846,-0.282955 19.300297,-2.610775 19.862671,-2.408357 0.198184,0.07133 0.329807,0.2145 0.292504,0.318137 -0.07371,0.204777 -19.591142,2.577599 -19.997813,2.431224 -0.136387,-0.04909 -0.2072,-0.202542 -0.157362,-0.341004 z m 25.98044,7.076901 c -0.312599,-2.517791 0.194063,-1.798752 0.773836,1.098205 0.01052,0.05258 0.823042,-0.003 1.805596,-0.123401 1.92285,-0.23572 2.832041,-0.112924 1.777851,0.240117 -0.707542,0.236952 -3.558958,0.506387 -3.933262,0.371662 -0.13071,-0.04705 -0.321518,-0.761011 -0.424021,-1.586583 z M 31.38794,59.005052 c 0.483889,-0.228734 9.707086,-1.275891 18.396517,-2.088652 3.185541,-0.297958 4.423113,-0.210333 3.456278,0.244715 -0.4088,0.192405 -19.734256,2.096863 -21.255559,2.094665 -1.018564,-0.0015 -1.074691,-0.02504 -0.597235,-0.25073 z m 27.404341,9.130456 c -0.422547,-0.62945 -0.751002,-1.192425 -0.7299,-1.251053 0.111133,-0.308757 2.119308,-0.472166 2.800518,-0.227882 0.688432,0.246947 0.945726,0.151434 2.021198,-0.749852 1.42377,-1.193177 1.46475,-0.90688 0.08136,0.56837 -0.701425,0.748001 -1.017685,1.316939 -1.198734,2.156465 -0.221234,1.025853 -0.274088,1.092626 -0.526237,0.664802 -0.236791,-0.401763 -0.352506,-0.426833 -0.745422,-0.161516 -0.634348,0.428346 -0.815917,0.321786 -1.70278,-0.999334 z m 2.126531,-0.734058 c 0.03703,-0.312113 -0.131917,-0.366161 -1.040494,-0.33286 l -1.084701,0.03975 0.545493,0.67706 c 0.519224,0.644452 0.569334,0.660483 1.040495,0.332861 0.272251,-0.189307 0.514893,-0.511871 0.539207,-0.716813 z m -3.515568,-2.760508 c -0.307075,-0.778334 -0.578739,-3.114947 -0.373393,-3.211594 0.09033,-0.04252 0.294241,0.726332 0.453134,1.708548 l 0.288896,1.78585 1.697832,-0.208136 c 0.933808,-0.114475 1.65775,-0.09677 1.608759,0.03934 -0.04899,0.136109 -0.585465,0.308219 -1.192164,0.382466 -1.81096,0.221618 -2.233053,0.137225 -2.483064,-0.496472 z m 0.780384,-2.194986 c -0.341636,-0.662175 -0.602216,-1.256571 -0.579068,-1.320882 0.09205,-0.25575 3.05778,-0.473043 3.416926,-0.250353 0.236035,0.146356 0.662418,0.0084 1.107727,-0.358345 0.398187,-0.327958 0.586761,-0.413169 0.419049,-0.18936 -0.76449,1.020213 -1.275913,2.229397 -1.190055,2.813706 0.09628,0.655257 -0.330054,0.756408 -0.466386,0.110657 -0.04693,-0.222298 -0.28324,-0.155163 -0.654948,0.186061 -0.775859,0.71224 -1.306429,0.456035 -2.053245,-0.991484 z m 2.121041,-0.218384 c 0.798779,-0.877979 0.592529,-1.108804 -0.853852,-0.955597 l -1.229449,0.130231 0.596554,0.667528 c 0.798451,0.89344 0.815826,0.895284 1.486747,0.157838 z M 29.338703,51.95245 c 0.930464,-0.339467 12.347937,-1.762881 12.784616,-1.593855 0.208185,0.08057 0.0949,0.204031 -0.307594,0.335203 -0.734613,0.239409 -12.736567,1.714315 -13.016302,1.599558 -0.102311,-0.04193 0.140382,-0.195373 0.53928,-0.340906 z m 41.6469,14.245761 c 0.116336,-0.285712 0.196553,-0.323469 0.204542,-0.09627 0.0072,0.205593 -0.0789,0.417127 -0.19139,0.470081 -0.1125,0.05295 -0.118413,-0.115264 -0.01315,-0.373807 z m 0.753966,-1.251791 c 0.123208,-0.342304 0.230112,-0.462 0.237574,-0.265989 0.0075,0.19601 -0.09335,0.476076 -0.224014,0.62237 -0.130666,0.146294 -0.136766,-0.01408 -0.01356,-0.356381 z M 27.6552,48.629347 c 0.861552,-0.275112 15.598294,-2.050895 16.94906,-2.042366 0.592594,0.0037 1.040605,0.109138 0.995586,0.234214 -0.128767,0.357749 -2.086674,0.640755 -10.273211,1.484948 -7.132111,0.735461 -9.240668,0.824298 -7.671435,0.323204 z m 30.325487,10.669569 c 0.02327,-0.06465 0.689178,-0.156905 1.47979,-0.205 0.790612,-0.04809 1.450775,-0.124392 1.467028,-0.169549 0.09622,-0.26733 -0.121732,-1.569022 -0.271755,-1.62302 -0.09897,-0.03562 -0.31919,0.138192 -0.489369,0.386259 -0.433978,0.632608 -0.757079,0.432691 -1.485076,-0.918881 -0.528738,-0.981635 -0.737198,-1.166039 -1.269807,-1.123277 l -0.637221,0.05116 0.181586,1.462551 c 0.208749,1.68134 -0.0226,2.095824 -0.336211,0.602345 -0.346152,-1.648448 -0.169681,-2.436753 0.56982,-2.545418 0.464626,-0.06827 0.640059,-0.24818 0.656282,-0.673024 0.01859,-0.486877 0.08516,-0.521279 0.415219,-0.214573 0.492143,0.457325 0.996584,0.642716 1.642922,0.603803 0.295012,-0.01776 0.464483,0.07673 0.409846,0.228525 -0.05123,0.142344 -0.342384,0.249293 -0.647003,0.237659 -0.532938,-0.02035 -0.545557,0.0073 -0.33428,0.733394 0.120767,0.415001 0.279913,0.78024 0.353658,0.811646 0.07374,0.03143 0.527292,-0.592249 1.007877,-1.385897 2.002214,-3.3065 2.846523,-4.163442 1.395814,-1.416703 -0.666281,1.261523 -0.788416,1.730917 -0.766859,2.947261 0.03698,2.086562 -0.113883,2.32776 -1.527381,2.441946 -1.198173,0.09679 -1.900728,0.0073 -1.814887,-0.231198 z M 26.802414,45.139239 c 0.116447,-0.32352 0.810193,-0.443394 12.651759,-2.186137 5.829183,-0.85789 10.772861,-1.497047 10.985951,-1.420348 0.213089,0.0767 0.351211,0.240091 0.306937,0.363097 -0.04427,0.123003 -4.662588,0.912904 -10.262923,1.755336 -13.683056,2.058276 -13.895275,2.081356 -13.681724,1.488052 z m 45.285445,15.714536 c 0.123207,-0.342303 0.230112,-0.462 0.237573,-0.265989 0.0075,0.19601 -0.09335,0.476077 -0.224013,0.622371 -0.130667,0.146294 -0.136767,-0.01408 -0.01356,-0.356382 z m -1.779757,-1.367032 c 0.116335,-0.285711 0.196552,-0.323468 0.204541,-0.09627 0.0072,0.205593 -0.0789,0.417127 -0.19139,0.470081 -0.1125,0.05295 -0.118414,-0.115265 -0.01315,-0.373808 z m 1.672899,0.03974 c 0.116336,-0.285712 0.196553,-0.323469 0.204542,-0.09627 0.0072,0.205593 -0.0789,0.417127 -0.19139,0.470081 -0.1125,0.05295 -0.118413,-0.115264 -0.01315,-0.373807 z m -1.008541,-1.04258 c 0.123207,-0.342303 0.230112,-0.462 0.237573,-0.265989 0.0075,0.19601 -0.09335,0.476077 -0.224013,0.62237 -0.130666,0.146294 -0.136767,-0.01408 -0.01356,-0.356381 z M 25.485829,41.307457 c 0.447803,-0.356031 24.083389,-4.02498 24.639554,-3.824796 0.649271,0.233696 -0.356029,0.670831 -2.238657,0.973433 -6.534574,1.050326 -22.031504,3.226077 -22.297089,3.130483 -0.172215,-0.06199 -0.21893,-0.187591 -0.103808,-0.27912 z m 46.183606,16.021307 c 0.123208,-0.342303 0.230112,-0.462 0.237574,-0.265989 0.0075,0.19601 -0.09335,0.476078 -0.224014,0.622371 -0.130666,0.146294 -0.136767,-0.01408 -0.01356,-0.356382 z m 0.639987,-1.058479 c 0.116336,-0.285711 0.196554,-0.323469 0.204542,-0.09627 0.0072,0.205593 -0.0789,0.417127 -0.19139,0.47008 -0.1125,0.05295 -0.118414,-0.115264 -0.01315,-0.373806 z m -1.314478,-1.035529 c 0.116336,-0.285711 0.196553,-0.323468 0.204542,-0.09627 0.0072,0.205593 -0.0789,0.417127 -0.19139,0.47008 -0.1125,0.05295 -0.118415,-0.115264 -0.01315,-0.373807 z m 0.696977,-1.155136 c 0.116335,-0.285711 0.196552,-0.323468 0.20454,-0.09627 0.0072,0.205593 -0.0789,0.417127 -0.19139,0.470081 -0.1125,0.05295 -0.118413,-0.115264 -0.01315,-0.373808 z M 24.875299,36.842608 c -0.08448,-0.400154 -0.228669,-0.374173 10.06544,-1.813822 1.71001,-0.239149 5.908646,-0.829862 9.3303,-1.312696 6.112909,-0.862599 7.096225,-0.916635 6.675348,-0.366826 -0.295912,0.386564 -13.765294,2.324015 -14.107006,2.029167 -0.153808,-0.132712 -0.253393,-0.116968 -0.221313,0.03501 0.04747,0.224821 -11.094973,1.931183 -11.547321,1.768367 -0.07371,-0.02653 -0.161661,-0.179169 -0.195448,-0.339197 z m 47.513597,16.081877 c 0.116335,-0.285711 0.196553,-0.323469 0.204541,-0.09627 0.0072,0.205591 -0.0789,0.417126 -0.19139,0.470079 -0.1125,0.05295 -0.118414,-0.115264 -0.01315,-0.373807 z m -0.490778,-1.699819 c 0.123208,-0.342303 0.230112,-0.462 0.237574,-0.265989 0.0075,0.19601 -0.09335,0.476077 -0.224014,0.62237 -0.130666,0.146294 -0.136766,-0.01408 -0.01356,-0.356381 z M 55.466875,44.91091 c -0.08415,-0.352167 -0.252869,-1.455011 -0.374935,-2.450762 -0.253227,-2.065665 -0.247752,-2.07133 2.068569,-2.140761 1.625253,-0.04872 2.403274,0.113829 2.01655,0.4213 -0.133908,0.106462 -0.129547,0.234572 0.0097,0.284686 0.13923,0.05011 0.734818,-0.31066 1.323529,-0.801718 1.407666,-1.174171 1.520546,-0.863813 0.14055,0.386443 -1.285768,1.16489 -1.401395,1.436306 -1.145028,2.687769 0.335334,1.636932 0.228977,1.749379 -1.901384,2.01029 -1.978044,0.24226 -1.985041,0.240959 -2.137532,-0.397247 z m 2.117004,-0.108597 c 1.609392,-0.199815 1.731665,-0.323678 1.456477,-1.475391 l -0.188008,-0.786853 -0.620161,0.405468 c -0.686439,0.4488 -1.42418,0.12755 -2.057117,-0.895772 -0.336434,-0.543944 -0.304267,-0.54729 0.599434,-0.06235 0.854582,0.458579 1.015248,0.458048 1.528677,-0.005 0.832694,-0.751063 0.532153,-1.216967 -0.832983,-1.291306 -2.128056,-0.115888 -2.233895,0.01035 -1.880308,2.242665 0.171707,1.08404 0.361649,1.988783 0.422096,2.01054 0.06044,0.02176 0.767801,-0.04212 1.571893,-0.141959 z M 24.070204,32.061278 c -0.07246,-0.343188 0.504303,-0.446012 5.766371,-1.028022 3.429678,-0.379341 4.505045,-0.401016 4.649676,-0.09372 0.14463,0.307295 -0.886223,0.508983 -4.457198,0.872054 -5.586592,0.568005 -5.888968,0.580675 -5.958849,0.249688 z m 30.314949,5.208608 c -0.206847,-1.15312 -0.26569,-2.184352 -0.130763,-2.291628 0.37808,-0.300597 3.748056,-0.565093 4.366574,-0.342716 0.388955,0.139842 0.862728,-0.06346 1.620092,-0.695197 1.418995,-1.18362 1.504883,-0.866912 0.119366,0.440158 -1.315837,1.241342 -1.416749,1.485298 -1.228365,2.969582 0.08064,0.635343 0.104359,1.272563 0.05271,1.416049 -0.05164,0.143485 -0.607453,0.278921 -1.23513,0.300969 -0.627679,0.02205 -1.601845,0.09842 -2.164815,0.169723 l -1.023583,0.129641 z m 4.301605,1.17853 c 0.05828,-0.02343 0.03795,-0.553545 -0.04518,-1.178039 -0.102397,-0.769203 -0.234829,-1.029506 -0.41058,-0.807017 -0.142686,0.180632 -0.477776,0.621545 -0.744641,0.979803 -0.674962,0.906116 -1.119987,0.800873 -1.299757,-0.307379 -0.264649,-1.631472 -0.376017,-1.864126 -0.887214,-1.853438 -0.632292,0.01322 -0.651981,0.09431 -0.490225,2.019228 l 0.136515,1.624557 1.817559,-0.217558 c 0.999657,-0.119659 1.865245,-0.236729 1.923523,-0.260157 z m -0.294241,-3.255398 c -0.09274,-0.197057 -1.792639,-0.182865 -1.86406,0.01556 -0.02338,0.06495 0.03344,0.522326 0.126269,1.016381 l 0.168775,0.898284 0.827922,-0.872875 c 0.455357,-0.480082 0.788848,-0.955892 0.741094,-1.057353 z m -23.753373,-4.41587 c -0.03653,-0.173012 0.551472,-0.35085 1.322468,-0.399969 0.763533,-0.04864 2.766631,-0.226567 4.45133,-0.39539 8.768309,-0.878672 9.240897,-0.904224 9.325352,-0.504215 0.03362,0.159261 -2.148311,0.52082 -4.848747,0.803462 -10.722842,1.122315 -10.12431,1.093345 -10.250403,0.496112 z m -9.312281,-4.100661 c 0.042,-0.168412 0.634847,-1.157155 1.317437,-2.19721 0.682592,-1.040055 1.319145,-2.105445 1.414563,-2.367534 0.312736,-0.859121 -0.311502,-0.275938 -1.35375,1.264606 -0.686396,1.014562 -0.853429,1.179896 -0.507645,0.502481 0.612009,-1.198965 0.455765,-1.397133 -0.309564,-0.392623 l -0.546441,0.717218 0.415554,-0.778307 c 0.254787,-0.477199 0.299589,-0.753825 0.115809,-0.715021 -0.164858,0.0348 -0.376773,0.249537 -0.470919,0.477178 -0.09415,0.22764 -0.177535,0.264252 -0.185301,0.08136 -0.01621,-0.381546 -0.993653,-0.503443 -2.469083,-0.307922 -0.518334,0.06869 -0.921908,0.06789 -0.896832,-0.0018 0.02508,-0.06967 0.722862,-0.210763 1.55063,-0.313535 0.827769,-0.102772 1.633817,-0.374585 1.791219,-0.60403 0.177107,-0.258165 0.44782,-0.32121 0.710259,-0.165408 0.477343,0.283385 1.365705,-0.622169 1.713314,-1.746471 0.140243,-0.45359 -0.03519,-0.307075 -0.564508,0.471475 -0.5377,0.790878 -0.715414,0.937706 -0.592677,0.489675 l 0.175303,-0.639903 -0.423332,0.550628 c -0.232832,0.302846 -0.381715,0.399965 -0.33085,0.21582 0.05087,-0.184144 -0.05914,-0.302797 -0.244452,-0.263673 -0.224215,0.04734 -0.222651,-0.08769 0.0046,-0.403532 0.187867,-0.261069 0.485785,-0.675845 0.662038,-0.921725 0.459175,-0.640567 0.158529,-0.636351 -0.563958,0.0079 -0.440489,0.392795 -0.575673,0.424849 -0.470979,0.111679 0.08079,-0.241577 0.05085,-0.4738 -0.06648,-0.516031 -0.117329,-0.04223 -3.133694,0.205722 -6.703034,0.551008 -3.569339,0.345286 -6.598,0.535582 -6.730357,0.422883 -0.212449,-0.180899 13.212449,-1.857743 15.195192,-1.897967 l 0.77211,-0.01566 L 27.57,17.260536 c -0.27805,-1.741125 -0.292909,-2.425561 -0.05855,-2.697168 0.123651,-0.14331 1.743755,-0.499173 3.600224,-0.790811 1.856466,-0.291637 3.495295,-0.582677 3.641835,-0.646759 0.146543,-0.06408 -0.31972,-0.605374 -1.03614,-1.202875 -3.19039,-2.6608148 -1.631871,-4.4774128 4.445827,-5.1820198 3.492909,-0.404945 5.619628,-0.06674 6.44088,1.024264 0.544775,0.723714 0.353706,1.594672 -0.46725,2.129883 -0.296691,0.1934258 -0.656606,0.6660228 -0.799812,1.0502158 -0.308654,0.827997 -0.601412,0.782619 4.698043,0.728292 2.044591,-0.02096 3.932968,0.03947 4.19639,0.134284 0.73427,0.26429 0.887645,0.993596 1.087676,5.1719 0.240906,5.032162 0.224904,5.155479 -0.721002,5.556422 -1.452426,0.615642 -17.108256,2.77007 -17.40622,2.395303 -0.103124,-0.1297 -0.232576,-0.11057 -0.287675,0.04251 -0.0551,0.153084 -0.187288,0.168774 -0.293751,0.03487 -0.106462,-0.133909 -0.226752,-0.151273 -0.267311,-0.03859 -0.04056,0.112679 -0.62153,0.320528 -1.29105,0.461883 -0.66952,0.141356 -1.254834,0.361264 -1.300696,0.488681 -0.04586,0.12742 -0.129826,0.133003 -0.186587,0.0124 -0.05676,-0.120599 -0.609986,-0.134085 -1.229392,-0.02996 -0.674192,0.113326 -1.362477,0.04947 -1.714913,-0.159114 -0.411376,-0.243456 -0.662087,-0.239152 -0.832269,0.01433 -0.133953,0.199511 -0.04309,-0.03964 0.201904,-0.531417 0.273759,-0.549541 0.341102,-0.931727 0.174615,-0.991652 -0.148957,-0.05362 -0.190186,-0.321535 -0.09162,-0.595377 0.403487,-1.120997 -0.272641,-0.513495 -1.508507,1.355392 -0.722773,1.092985 -1.279769,1.849454 -1.237769,1.681043 z m 6.211234,-1.72551 c 0.740124,-0.122671 4.347909,-0.62645 8.017299,-1.11951 8.543737,-1.148027 12.748638,-1.88632 12.88391,-2.262143 0.05907,-0.164113 0.04687,-1.063526 -0.02712,-1.998696 -0.124205,-1.570004 -0.165906,-1.657734 -0.544136,-1.144746 -0.225291,0.30556 -0.530408,0.856102 -0.678038,1.223426 -0.185006,0.460317 -0.360208,0.588662 -0.56379,0.413001 -0.189569,-0.163567 -0.455413,-0.02946 -0.742155,0.374397 -0.330302,0.465208 -0.432723,0.506026 -0.392866,0.156566 0.08804,-0.77185 -0.385966,-0.698521 -0.674974,0.104421 l -0.267499,0.743185 -0.618243,-0.766223 c -0.69085,-0.85621 -1.031969,-0.899047 -1.296947,-0.162866 -0.09857,0.273843 -0.266553,0.388041 -0.373302,0.253774 -0.127948,-0.160927 -0.05479,-0.369768 0.214623,-0.612818 0.293663,-0.264875 0.34043,-0.48461 0.166092,-0.780408 -0.290724,-0.493274 -0.713577,-0.245651 -0.699872,0.409843 0.01101,0.526317 -0.359774,0.463075 -0.628151,-0.10714 -0.141754,-0.301185 -0.243041,-0.320922 -0.42589,-0.08299 -0.131945,0.171695 -0.35643,0.460041 -0.498853,0.640768 -0.142422,0.180727 -0.130036,-0.05733 0.02754,-0.529053 0.367745,-1.100858 -0.02855,-0.911796 -0.921733,0.439746 l -0.70155,1.061545 0.710596,-1.572033 c 0.861802,-1.906543 0.426265,-1.856061 -0.784539,0.09093 -1.031593,1.658817 -1.234474,1.514037 -0.240286,-0.17147 0.89956,-1.525075 1.152344,-2.203699 0.792572,-2.127743 -0.152277,0.03215 -0.699406,0.792438 -1.215837,1.689529 -0.516435,0.89709 -0.970606,1.563861 -1.00927,1.481711 -0.03866,-0.08215 0.353728,-0.885931 0.871981,-1.786186 0.791572,-1.375027 0.911184,-1.725796 0.747852,-2.193099 -0.11153,-0.319092 -0.09458,-0.434013 0.03975,-0.26953 0.137301,0.168119 0.417704,0.121216 0.6778,-0.113385 0.261848,-0.236177 0.574156,-0.287499 0.762191,-0.125251 0.230719,0.199068 0.381994,0.09872 0.548471,-0.363797 l 0.229887,-0.638688 -2.425771,0.310318 -2.42577,0.310318 -2.081538,3.128348 c -1.144847,1.720591 -2.114007,3.059365 -2.153687,2.975053 -0.03968,-0.08431 0.78841,-1.455113 1.840204,-3.046225 1.051795,-1.591112 1.889845,-2.940756 1.862333,-2.999211 -0.02751,-0.05845 -0.467044,-0.02136 -0.976735,0.08242 -0.825331,0.16806 -1.062936,0.409723 -2.171894,2.208963 -0.684852,1.111141 -1.242013,1.886793 -1.238138,1.723671 0.0039,-0.163123 0.449339,-0.981517 0.98993,-1.818652 0.540586,-0.837137 1.021155,-1.628393 1.06793,-1.758346 0.04677,-0.129954 -0.940215,-0.112445 -2.193309,0.03891 -2.99043,0.361193 -4.504881,0.429404 -4.202888,0.189301 0.313518,-0.249266 16.6388,-2.144945 17.085934,-1.984005 0.580395,0.208905 -0.124702,0.522855 -1.264166,0.562879 -1.104607,0.0388 -1.762652,0.440205 -1.422668,0.867826 0.101813,0.128058 0.261467,0.03139 0.354785,-0.214795 0.160126,-0.422433 0.17513,-0.417967 0.266608,0.07936 0.134625,0.731866 0.525403,0.803893 0.800585,0.147559 0.173452,-0.413688 0.219861,-0.431779 0.187531,-0.0731 -0.05953,0.660492 0.288014,0.718853 0.732234,0.122958 0.225294,-0.302216 0.378364,-0.357962 0.388333,-0.141426 0.009,0.196582 0.101168,0.387915 0.204702,0.425181 0.298385,0.1074 1.32021,-1.045175 1.088465,-1.227741 -0.113081,-0.08908 -0.358403,-0.402526 -0.545166,-0.69654 -0.32971,-0.519057 -0.326908,-0.524387 0.09653,-0.183668 0.400391,0.322177 0.419102,0.302177 0.22853,-0.244291 -0.194765,-0.558492 -0.179646,-0.564358 0.245138,-0.09512 0.537033,0.593229 0.792502,0.222343 0.294481,-0.427522 -0.219805,-0.286822 -0.219958,-0.352085 -4.41e-4,-0.189965 0.410419,0.303105 1.275531,-0.07738 0.990645,-0.435695 -0.107482,-0.135189 -0.662261,-0.260286 -1.232839,-0.277997 -1.128293,-0.03502 -2.403658,0.219974 -2.031038,0.406078 0.127489,0.06368 -0.19215,0.06315 -0.710313,-0.0012 -2.943111,-0.365289 -3.239457,-0.360611 -3.230848,0.051 0.0043,0.206511 -0.19915,0.275467 -0.496746,0.168351 -0.277228,-0.09975 -0.464008,-0.298038 -0.415061,-0.440604 0.04897,-0.142556 -0.08008,-0.130259 -0.286739,0.02735 -0.318571,0.242965 -0.351651,0.217839 -0.217448,-0.165163 0.08718,-0.248405 0.0312,-0.424891 -0.124129,-0.392096 -0.679468,0.143457 -0.03746,-2.5359108 0.666249,-2.7805508 0.381428,-0.1326 0.419966,-0.116638 0.183711,0.07611 -0.578881,0.472256 0.22491,0.423479 0.856537,-0.05198 0.724745,-0.545551 0.695319,-0.98607 -0.0479,-0.717107 -0.417149,0.15096 -0.464588,0.08609 -0.30908,-0.422677 0.131234,-0.42936 0.106404,-0.488288 -0.08695,-0.206331 -0.273695,0.39911 -0.797416,0.410225 -0.654763,0.0139 0.107553,-0.298812 -0.892423,-0.505931 -2.139627,-0.443169 -0.576611,0.02902 -1.090085,-0.03584 -1.141053,-0.144132 -0.05097,-0.10829 -0.139708,-0.0662 -0.197207,0.09355 -0.0575,0.159741 -0.272579,0.229955 -0.477961,0.15603 -0.205383,-0.07392 -0.416125,-0.01577 -0.468317,0.129233 -0.05219,0.145002 -0.181999,0.154081 -0.288462,0.02018 -0.106462,-0.133908 -0.231792,-0.137272 -0.278508,-0.0075 -0.04672,0.129788 -0.21937,0.170017 -0.383677,0.0894 -0.164308,-0.08062 -0.375028,-0.0475 -0.468265,0.0736 -0.26559,0.344951 -1.005833,0.392255 -1.253987,0.08014 -0.150534,-0.189338 -0.221671,-0.126966 -0.215069,0.18857 0.0063,0.298874 -0.115461,0.426371 -0.332446,0.348271 -0.219737,-0.07909 -0.359849,0.07185 -0.391309,0.421554 -0.03836,0.426379 -0.179306,0.504951 -0.648572,0.361577 -0.434426,-0.132729 -0.490075,-0.108174 -0.202045,0.08916 0.218636,0.149786 0.29625,0.352857 0.172479,0.451263 -0.123771,0.0984 0.117653,0.3022658 0.536498,0.4530238 0.809305,0.291298 0.87335,0.552319 0.211904,0.863633 -0.674723,0.317562 0.666284,0.656649 1.444397,0.36523 0.638112,-0.238988 0.646484,-0.235974 0.175829,0.06329 -0.426452,0.271157 -0.436812,0.334877 -0.07559,0.464893 0.230229,0.08287 0.309039,0.237774 0.175132,0.344237 -0.133908,0.106462 -0.118218,0.23865 0.03487,0.293752 0.153084,0.0551 0.176345,0.181269 0.05169,0.280376 -0.124659,0.0991 -0.138753,0.290738 -0.03133,0.425852 0.173707,0.218481 -0.231913,0.441435 -2.086445,1.146852 -0.264386,0.100565 -0.50138,0.143767 -0.526656,0.096 -0.145756,-0.275434 -0.815655,-0.28997 -1.482512,-0.0321 -0.421242,0.162876 -0.892226,0.187133 -1.046631,0.05391 -0.26761,-0.230907 -0.476535,-0.0156 -0.62696,0.646123 -0.03787,0.166563 -0.253244,0.204196 -0.478623,0.08363 -0.496331,-0.265521 -1.215129,-0.0042 -1.136866,0.41328 0.03109,0.16585 -0.07768,0.07957 -0.241706,-0.191728 -0.164027,-0.271301 -0.328666,-0.40872 -0.365864,-0.305372 -0.06386,0.17741 0.518227,8.042363 0.679668,9.183481 0.08848,0.625434 0.618019,0.698861 2.632296,0.365006 z m 1.878197,-4.027537 c 0.737523,-1.661888 1.609901,-3.302073 1.809757,-3.402577 0.272872,-0.137223 -0.443691,1.416355 -1.436769,3.115028 l -1.018614,1.742367 z m 1.43885,0.654156 c 1.103388,-1.882697 2.814386,-4.424114 2.66446,-3.957634 -0.202885,0.631257 -2.667155,4.55291 -2.940849,4.680087 -0.111125,0.05164 0.01326,-0.273467 0.276374,-0.722458 z m -0.88493,-0.197013 c 0.116335,-0.28571 0.196553,-0.323469 0.204541,-0.09627 0.0072,0.205594 -0.0789,0.417128 -0.19139,0.470079 -0.1125,0.05295 -0.118414,-0.115264 -0.01315,-0.373806 z m 3.11485,0.659433 c 0.189299,-0.525924 2.990691,-5.151879 3.17138,-5.236924 0.261349,-0.123004 -0.0393,0.459716 -1.542626,2.989939 -1.415443,2.38231 -1.935898,3.100314 -1.628754,2.246985 z m -4.166062,-1.928271 c -0.01801,-0.122479 0.151281,-0.472799 0.376191,-0.778496 0.382229,-0.519523 0.391537,-0.502404 0.142527,0.2622 -0.256961,0.789056 -0.450307,0.981488 -0.518713,0.516297 z m 5.641752,1.796337 c 0.116335,-0.285709 0.196553,-0.323468 0.204542,-0.09627 0.0072,0.205594 -0.0789,0.417128 -0.19139,0.47008 -0.1125,0.05295 -0.118414,-0.115264 -0.01315,-0.373808 z m -7.215471,-3.440711 c 0.09653,-0.261688 0.349753,-0.602889 0.562663,-0.758245 0.282706,-0.206287 0.269553,-0.09726 -0.04877,0.404247 -0.534226,0.841667 -0.748235,0.989088 -0.513896,0.353998 z m 7.835945,2.562674 c 0.09283,-0.275909 0.7364,-1.436206 1.430162,-2.578438 0.693766,-1.142231 1.16809,-1.794016 1.054053,-1.448411 -0.114081,0.345588 -0.757608,1.505902 -1.430162,2.578438 -0.672554,1.072535 -1.146879,1.72432 -1.054053,1.448411 z m 1.321243,0.170929 c 0.116335,-0.285709 0.196553,-0.323469 0.204541,-0.09627 0.0072,0.205593 -0.0789,0.417128 -0.19139,0.470079 -0.1125,0.05295 -0.118414,-0.115264 -0.01315,-0.373806 z m -7.538183,-3.275666 c 0.116334,-0.285709 0.196553,-0.323468 0.204541,-0.09627 0.0072,0.205593 -0.0789,0.417127 -0.19139,0.470079 -0.1125,0.05295 -0.118413,-0.115264 -0.01314,-0.373807 z m 1.196414,-0.108334 c 0.152931,-0.408937 0.258352,-0.526758 0.234288,-0.261821 -0.02407,0.264936 -0.149184,0.599523 -0.278037,0.743526 -0.128872,0.143996 -0.109184,-0.07277 0.04374,-0.481709 z m 2.114227,-7.127338 c -0.482056,-1.0242198 0.116777,-1.5630258 1.95388,-1.7580208 1.994922,-0.211745 2.680958,0.138591 2.30683,1.1780198 -0.460375,1.279046 -3.722684,1.723137 -4.26071,0.580001 z m 2.307336,-0.01434 c 0.724312,-0.196966 1.072933,-0.7114978 0.753927,-1.1127318 -0.215334,-0.270838 -2.527876,-0.034931 -2.637285,0.269036 -0.228759,0.6355538 0.858183,1.1224748 1.883358,0.8436958 z M 27.876172,21.038352 c 0.119474,-0.331931 0.09266,-0.341583 -0.241323,-0.08686 -0.206653,0.157609 -0.436216,0.454601 -0.510141,0.659984 -0.119473,0.33193 -0.09266,0.341582 0.241324,0.08686 0.206653,-0.15761 0.436216,-0.454602 0.51014,-0.659984 z m 20.7794,-0.675554 c 0.04928,-0.136922 -0.02242,-0.289271 -0.159342,-0.338554 -0.136922,-0.04928 -0.289271,0.02242 -0.338554,0.159343 -0.04928,0.136921 0.02242,0.289271 0.159343,0.338554 0.136921,0.04928 0.28927,-0.02242 0.338553,-0.159343 z m -2.815627,-1.435247 c 0.04682,-0.130075 -0.02085,-0.31999 -0.150386,-0.422033 -0.129532,-0.102038 -0.302714,0.0012 -0.384853,0.229381 -0.08214,0.228203 -0.01446,0.418118 0.150386,0.422033 0.164849,0.0039 0.338034,-0.09931 0.384853,-0.229381 z m 2.1531,0.932175 c 0.105722,-0.293724 -0.26672,-0.782693 -0.509232,-0.668554 -0.24251,0.114139 -0.103065,0.71277 0.19066,0.818492 0.12884,0.04638 0.272197,-0.0211 0.318572,-0.149938 z m -2.752788,-1.727021 c 0.07683,-0.213463 0.0027,-0.359201 -0.164631,-0.323862 -0.167381,0.03534 -0.34227,0.169669 -0.388644,0.29851 -0.04637,0.128841 0.02771,0.274578 0.16463,0.323861 0.136922,0.04928 0.311812,-0.08505 0.388645,-0.298509 z m 1.936206,0.870702 c 0.105722,-0.293724 -0.26672,-0.782692 -0.509231,-0.668554 -0.24251,0.11414 -0.103065,0.712772 0.190658,0.818494 0.128841,0.04637 0.272199,-0.0211 0.318573,-0.14994 z m -2.784835,-1.280728 c 0.12466,-0.0991 0.138117,-0.291539 0.02992,-0.427629 -0.108201,-0.136086 -0.259588,-0.07278 -0.336422,0.140679 -0.157394,0.437285 -0.03119,0.55544 0.306506,0.28695 z m 5.568067,2.141915 c 0.02173,-0.06038 -0.04759,-0.219341 -0.154054,-0.353247 -0.106462,-0.133908 -0.236271,-0.124823 -0.288462,0.02018 -0.05219,0.145002 0.01713,0.303962 0.154054,0.353245 0.136922,0.04928 0.266728,0.04021 0.288462,-0.02017 z M 46.359882,18.14709 c 0.04637,-0.128842 -0.0028,-0.343816 -0.109253,-0.477721 -0.106462,-0.133908 -0.256432,-0.06881 -0.333265,0.144651 -0.07683,0.213462 -0.02767,0.428436 0.109252,0.47772 0.136921,0.04928 0.286891,-0.01581 0.333266,-0.14465 z m -2.349786,-1.28417 c 0.07392,-0.205383 0.02238,-0.413744 -0.11454,-0.463027 -0.136922,-0.04928 -0.309431,0.07843 -0.383356,0.283816 -0.07392,0.205382 -0.02238,0.413745 0.11454,0.463028 0.136921,0.04928 0.309431,-0.07844 0.383356,-0.283817 z m 6.925746,2.633427 c 0.04928,-0.136922 -0.02242,-0.289271 -0.159342,-0.338554 -0.136922,-0.04928 -0.289271,0.02242 -0.338554,0.159343 -0.04928,0.136922 0.02242,0.289271 0.159342,0.338554 0.136922,0.04928 0.289271,-0.02242 0.338554,-0.159343 z m -2.275402,-1.1002 c -0.03534,-0.167381 -0.176279,-0.344649 -0.3132,-0.393932 -0.136922,-0.04928 -0.220036,0.04734 -0.184696,0.214721 0.03534,0.167381 0.176278,0.344649 0.3132,0.393932 0.136922,0.04928 0.220036,-0.04734 0.184696,-0.214721 z m 1.618163,0.582435 c 0.04928,-0.136921 -0.02903,-0.29165 -0.174036,-0.343841 -0.145002,-0.05219 -0.234726,0.04205 -0.199386,0.209433 0.03534,0.167381 0.113655,0.322109 0.174035,0.343842 0.06038,0.02173 0.150104,-0.07251 0.199387,-0.209434 z m -2.36466,-1.242842 c 0.01937,-0.05381 -0.109615,-0.222806 -0.286629,-0.375543 -0.177016,-0.152735 -0.360902,-0.169194 -0.408639,-0.03657 -0.04774,0.132625 0.08125,0.301619 0.286629,0.375544 0.205382,0.07392 0.389269,0.09038 0.408639,0.03657 z m 3.92903,0.260401 c 0.541838,-0.976973 0.567917,-3.132158 0.03204,-2.647286 -0.472005,0.427074 -1.460067,2.553999 -1.225658,2.638371 0.110063,0.03962 0.321913,-0.105578 0.470774,-0.322652 0.148862,-0.217075 0.150228,-0.0193 0.003,0.439488 -0.338517,1.055117 0.11227,0.987531 0.719817,-0.107921 z m -4.830919,-0.879714 c 0.02173,-0.06038 -0.04759,-0.21934 -0.154054,-0.353245 -0.106462,-0.133909 -0.236272,-0.124824 -0.288463,0.02018 -0.05219,0.145002 0.01713,0.303963 0.154055,0.353246 0.136921,0.04928 0.266728,0.04021 0.288462,-0.02018 z m 2.041676,0.577678 c 0.04928,-0.136922 -0.02242,-0.28927 -0.159342,-0.338553 -0.136922,-0.04928 -0.289271,0.02242 -0.338554,0.159342 -0.04928,0.136922 0.02242,0.28927 0.159343,0.338554 0.136922,0.04928 0.28927,-0.02242 0.338553,-0.159343 z m -0.997818,-0.977792 c -0.102247,-0.217239 -0.298288,-0.342083 -0.435653,-0.277431 -0.137364,0.06465 -0.124151,0.275536 0.02939,0.468643 0.361508,0.45469 0.647017,0.320311 0.406265,-0.191212 z m 1.739597,-0.301817 c 0.07392,-0.205383 0.172016,-0.451628 0.21804,-0.547191 0.04601,-0.09557 -0.02235,-0.257256 -0.151877,-0.359299 -0.129532,-0.102038 -0.339676,0.10387 -0.466991,0.457584 -0.127314,0.353714 -0.119454,0.683438 0.01747,0.732721 0.136922,0.04928 0.309433,-0.07843 0.383357,-0.283816 z m 0.916121,0.189144 c 0.133908,-0.106462 0.124823,-0.236271 -0.02018,-0.288462 -0.145002,-0.05219 -0.303963,0.01713 -0.353246,0.154054 -0.04928,0.136922 -0.04021,0.266728 0.02018,0.288462 0.06038,0.02173 0.219341,-0.04759 0.353247,-0.154054 z m -0.08474,-1.717702 c 0.04928,-0.136922 -0.02903,-0.291651 -0.174035,-0.343842 -0.145002,-0.05219 -0.234726,0.04205 -0.199387,0.209434 0.03534,0.167381 0.113656,0.322109 0.174036,0.343841 0.06038,0.02173 0.150103,-0.07251 0.199386,-0.209433 z m 1.035307,0.248639 c 0.02173,-0.06038 -0.04759,-0.21934 -0.154054,-0.353245 -0.106462,-0.133908 -0.236271,-0.124824 -0.288462,0.02018 -0.05219,0.145002 0.01713,0.303962 0.154054,0.353245 0.136922,0.04928 0.266731,0.0402 0.288462,-0.02018 z m 0.453908,-0.485918 c 0.07753,-0.222499 -0.979508,-1.312191 -1.180896,-1.217406 -0.07658,0.03604 0.116721,0.352304 0.42955,0.702804 0.676451,0.757906 0.668512,0.752468 0.751346,0.514602 z m 0.124229,-1.120302 c 0.202764,-0.563331 -0.324965,-1.089403 -0.9831,-0.980014 -0.393589,0.06542 -0.37495,0.187306 0.112012,0.732508 0.733021,0.820689 0.671111,0.803098 0.871089,0.247505 z M 25.257423,25.274545 c 0.116336,-0.285711 0.196553,-0.323469 0.204543,-0.09627 0.0072,0.205593 -0.0789,0.417127 -0.191399,0.470077 -0.1125,0.05295 -0.118415,-0.115264 -0.01315,-0.373807 z m 1.583295,0.288684 c 0.116326,-0.285714 0.196553,-0.323468 0.204543,-0.09627 0.0072,0.205593 -0.0789,0.417127 -0.1914,0.470077 -0.1125,0.05295 -0.118414,-0.115264 -0.01314,-0.373807 z m 0.60737,-0.906187 c 0.116335,-0.28571 0.196552,-0.323468 0.204543,-0.09627 0.0072,0.205592 -0.0789,0.417126 -0.191399,0.470076 -0.1125,0.05295 -0.118414,-0.115264 -0.01315,-0.373806 z m 25.932618,6.401303 c -0.194518,-1.791694 -0.159094,-2.356355 0.15961,-2.544191 0.309583,-0.182461 0.363697,-0.347798 0.221582,-0.677031 -0.153385,-0.355366 -0.04599,-0.352301 0.582977,0.01663 0.494001,0.289762 1.084847,0.410647 1.644562,0.336477 0.838246,-0.111085 0.884905,-0.168057 1.154164,-1.409322 0.346203,-1.595953 0.889905,-1.612588 0.602897,-0.01845 -0.130652,0.725691 -0.06075,1.181339 0.209704,1.366871 0.449678,0.308487 0.857574,4.186443 0.472541,4.492568 -0.129591,0.103031 -1.262161,0.311502 -2.516828,0.463271 L 53.6307,33.361111 53.380693,31.058337 Z m 4.535214,1.076739 c 0.117259,-0.325779 -0.116011,-3.13731 -0.264778,-3.191276 -0.07201,-0.02612 -0.249485,0.415991 -0.394388,0.982477 -0.3187,1.245943 -0.733459,1.198043 -2.037538,-0.235313 -0.676816,-0.743909 -0.935584,-0.893933 -1.270231,-0.736429 -0.334647,0.157505 -0.377017,0.580148 -0.207974,2.074653 l 0.212293,1.876851 1.942999,-0.279047 c 1.068652,-0.153476 1.977481,-0.37484 2.019621,-0.491915 z m -1.310496,-2.955563 c 0.01442,-0.377684 -0.144921,-0.562104 -0.514392,-0.595343 -0.704668,-0.06339 -0.774641,0.209541 -0.198237,0.773248 0.569976,0.557422 0.685651,0.528545 0.712629,-0.177905 z"
       style="fill:#532b6d;fill-opacity:1;stroke-width:0.26458332"
       inkscape:connector-curvature="0" />
  </g>
</svg>
