<?xml version="1.0" encoding="UTF-8" standalone="no"?>
<!-- Created with Inkscape (http://www.inkscape.org/) -->

<svg
   xmlns:dc="http://purl.org/dc/elements/1.1/"
   xmlns:cc="http://creativecommons.org/ns#"
   xmlns:rdf="http://www.w3.org/1999/02/22-rdf-syntax-ns#"
   xmlns:svg="http://www.w3.org/2000/svg"
   xmlns="http://www.w3.org/2000/svg"
   xmlns:sodipodi="http://sodipodi.sourceforge.net/DTD/sodipodi-0.dtd"
   xmlns:inkscape="http://www.inkscape.org/namespaces/inkscape"
   width="118.45226mm"
   height="60.249596mm"
   viewBox="0 0 118.45226 60.249596"
   version="1.1"
   id="svg8"
   inkscape:version="0.92.5 (2060ec1f9f, 2020-04-08)"
   sodipodi:docname="hands.svg">
  <defs
     id="defs2" />
  <sodipodi:namedview
     id="base"
     pagecolor="#ffffff"
     bordercolor="#666666"
     borderopacity="1.0"
     inkscape:pageopacity="0.0"
     inkscape:pageshadow="2"
     inkscape:zoom="1.4"
     inkscape:cx="144.66827"
     inkscape:cy="19.225225"
     inkscape:document-units="mm"
     inkscape:current-layer="layer1"
     showgrid="false"
     fit-margin-top="0"
     fit-margin-left="0"
     fit-margin-right="0"
     fit-margin-bottom="0"
     inkscape:window-width="1920"
     inkscape:window-height="1016"
     inkscape:window-x="0"
     inkscape:window-y="0"
     inkscape:window-maximized="1" />
  <metadata
     id="metadata5">
    <rdf:RDF>
      <cc:Work
         rdf:about="">
        <dc:format>image/svg+xml</dc:format>
        <dc:type
           rdf:resource="http://purl.org/dc/dcmitype/StillImage" />
        <dc:title></dc:title>
      </cc:Work>
    </rdf:RDF>
  </metadata>
  <g
     inkscape:label="Layer 1"
     inkscape:groupmode="layer"
     id="layer1"
     transform="translate(-78.233863,-53.514419)">
    <path
       style="fill:#532b6d;fill-opacity:1;stroke-width:0.26458332"
       d="m 126.84147,113.22838 c -0.5457,-0.28809 -0.99218,-0.56486 -0.99218,-0.61506 0,-0.11821 1.57871,0.0655 2.16667,0.25207 0.84026,0.26669 2.52247,-0.40841 4.74813,-1.90551 2.77168,-1.86437 4.128,-3.14385 4.33585,-4.09019 0.19582,-0.89155 -0.23268,-1.77277 -1.01535,-2.08812 -0.55944,-0.2254 -0.56051,-0.23342 -0.0333,-0.24966 1.03796,-0.0319 1.55513,0.62438 1.58111,2.00655 0.0198,1.05284 0.11611,1.2986 0.53664,1.36927 0.28188,0.0474 1.14205,0.31544 1.9115,0.59573 2.58783,0.94265 4.5401,0.55727 6.28641,-1.24095 0.91774,-0.94502 0.94201,-1.01455 0.47722,-1.36714 -0.4312,-0.32711 -0.30004,-0.35076 1.0978,-0.19797 1.47082,0.16076 1.675,0.11475 2.77812,-0.62608 0.65485,-0.43978 1.46934,-1.21447 1.80999,-1.72155 0.34066,-0.50708 0.88793,-1.09792 1.21616,-1.31299 0.56862,-0.37257 0.59095,-0.36043 0.47289,0.25714 -0.15246,0.79755 -2.24046,3.16241 -3.25572,3.68743 -0.41042,0.21223 -1.35446,0.38588 -2.09788,0.38588 -0.77635,0 -1.28624,0.10587 -1.19794,0.24874 0.24807,0.40138 -1.37273,2.05011 -2.59891,2.6437 -1.63202,0.79005 -2.95213,0.69497 -5.50153,-0.39621 l -2.20399,-0.94335 -1.14136,1.208 c -1.98415,2.10001 -6.2075,4.65869 -7.65177,4.63575 -0.40502,-0.006 -1.18288,-0.24739 -1.72858,-0.53548 z m -12.10468,-0.50306 c -0.92477,-0.17446 -2.11667,-0.70772 -2.11667,-0.94699 0,-0.0696 0.43126,0.0537 0.95835,0.27389 2.29489,0.95886 4.17242,0.15993 8.18032,-3.48093 3.76337,-3.41872 8.21164,-8.33847 8.59809,-9.509431 0.25176,-0.76284 0.22846,-1.02996 -0.13871,-1.59033 -1.17137,-1.78773 -3.91667,-1.71097 -7.8074,0.2183 -1.23752,0.61364 -2.34825,1.16312 -2.46831,1.22105 -0.63596,0.3069 1.8099,-1.86102 2.50535,-2.22065 1.4103,-0.7293 3.4469,-1.22384 5.03995,-1.22384 3.71733,0 5.01703,2.68378 2.68911,5.552791 -2.97909,3.67153 -10.20575,10.3821 -12.13279,11.26632 -1.08695,0.49875 -2.2061,0.64758 -3.30729,0.43982 z m 8.33437,-0.93976 c 4.82796,-1.15613 5.82307,-1.82857 9.49714,-6.4176 1.44479,-1.80458 3.25151,-3.71036 4.32013,-4.55698 2.20364,-1.745871 3.25042,-3.019521 3.24247,-3.945211 -0.007,-0.77612 -0.64288,-1.67189 -1.49808,-2.10924 -0.72628,-0.37143 -2.86255,-0.3845 -3.54051,-0.0217 -0.28148,0.15064 -0.51178,0.20409 -0.51178,0.11879 0,-0.31551 1.86711,-0.92182 2.83578,-0.92086 1.31852,10e-4 2.52196,0.76605 3.09033,1.96382 0.44508,0.93794 0.44186,1.006 -0.10066,2.12671 -0.37888,0.78266 -1.45599,1.93853 -3.32452,3.567631 -1.86812,1.62875 -3.16932,3.02503 -4.01437,4.30774 -1.59518,2.42133 -3.5418,4.35853 -5.37653,5.35051 -1.24986,0.67575 -1.76511,0.79006 -3.82565,0.84872 l -2.38125,0.0678 1.5875,-0.38015 z m -17.72708,-1.96058 c -1.14504,-0.27534 -1.74832,-0.65112 -2.64583,-1.64809 -0.5945,-0.66036 -0.62771,-0.74027 -0.1323,-0.3183 1.7569,1.49645 3.80443,1.81347 5.85335,0.90628 2.66798,-1.1813 7.75197,-4.77387 8.32567,-5.88327 0.3662,-0.70816 0.35038,-0.79445 -0.25703,-1.40186 -1.27121,-1.2712 -3.31171,-1.11854 -4.9017,0.36672 -1.01175,0.94512 -1.01679,1.18789 -0.0448,2.15987 0.93484,0.93483 0.6498,1.03992 -0.33788,0.12457 -1.12072,-1.03865 -0.8771,-1.97916 0.80544,-3.10943 0.5544,-0.37242 1.384,-0.74557 1.84355,-0.82921 0.96662,-0.17592 2.46996,0.19184 2.77982,0.68003 0.11715,0.18456 0.21299,0.2165 0.21299,0.071 0,-0.49011 -0.38321,-0.85214 -1.50271,-1.419671 -1.29003,-0.65398 -2.9096,-0.71238 -4.44231,-0.1602 -1.32891,0.47875 -1.32962,0.47872 -0.89229,-0.0486 0.97429,-1.1748 3.80417,-1.49785 5.67558,-0.6479 2.17879,0.98956 2.85276,2.989161 1.62357,4.816951 -1.21776,1.81077 -8.03628,6.06744 -10.24332,6.3947 -0.50932,0.0755 -1.28323,0.0514 -1.71979,-0.0536 z m 27.56076,-0.72373 c -0.097,-0.097 -0.17639,-0.50457 -0.17639,-0.90568 0,-0.73133 1.08936,-2.0723 2.14043,-2.63481 0.8737,-0.46759 0.55005,0.15286 -0.53431,1.02427 -1.16943,0.93979 -1.53877,1.73928 -1.06641,2.30843 0.31069,0.37437 -0.0121,0.559 -0.36332,0.20779 z m -39.467011,-6.29848 c -2.182812,-0.33059 -6.469062,-0.86612 -9.524999,-1.19006 -3.055938,-0.32394 -5.605859,-0.63685 -5.666493,-0.69536 -0.429846,-0.41478 10.356861,0.32679 15.751954,1.08291 4.510248,0.63212 6.104209,0.98517 5.505931,1.21952 -0.775827,0.30391 -1.747306,0.23713 -6.066393,-0.41701 z m 31.353121,-0.37489 c -1.55166,-0.94192 -1.62591,-1.54459 -0.36258,-2.942941 0.82021,-0.90787 4.06675,-2.93031 4.06675,-2.53339 0,0.0643 -0.68461,0.53612 -1.52136,1.04843 -1.54056,0.94326 -2.97656,2.468541 -2.97656,3.161631 0,0.20841 0.34858,0.5233 0.77463,0.69977 0.76786,0.31807 1.90943,1.35002 1.44919,1.31005 -0.13169,-0.0114 -0.77522,-0.34604 -1.43007,-0.74355 z m 32.67604,-0.53972 c 1.75681,-0.22739 2.27693,-0.55166 3.45165,-2.151961 1.55939,-2.1243 1.93238,-2.16644 6.47023,-0.73092 3.93688,1.245401 6.06766,0.83452 7.21211,-1.39074 0.25588,-0.49753 0.90504,-2.12671 1.44257,-3.62038 1.2091,-3.35986 1.66475,-3.04827 0.71764,0.49076 -0.69036,2.57967 -1.49232,4.23054 -2.49483,5.13575 -0.51481,0.464841 -0.92642,0.524281 -3.40087,0.491101 -2.31825,-0.0311 -3.25822,-0.177161 -5.32524,-0.827541 -1.38054,-0.43439 -2.6646,-0.7305 -2.85346,-0.65802 -0.18887,0.0725 -0.70835,0.66221 -1.1544,1.31054 -1.13441,1.648801 -2.1449,2.203461 -3.93311,2.158901 l -1.4552,-0.0363 z m -24.32783,-1.06275 -0.74663,-0.77931 0.63098,-0.745291 c 1.27122,-1.50151 3.11906,-3.01739 3.97869,-3.26393 1.53749,-0.44094 1.73348,-0.24621 0.30496,0.30299 -0.95851,0.36851 -1.77919,0.97129 -2.71198,1.99191 -0.73566,0.80493 -1.33756,1.59507 -1.33756,1.755861 0,0.16079 0.25888,0.56792 0.57528,0.90472 0.31641,0.3368 0.45775,0.61237 0.31409,0.61237 -0.14366,0 -0.59718,-0.35069 -1.00783,-0.77932 z m 38.43555,-10.999591 c 0.77425,-0.18882 3.21503,-0.42107 5.42396,-0.51612 2.20893,-0.095 7.51514,-0.34764 11.79157,-0.56131 4.27643,-0.21367 7.82515,-0.33867 7.88603,-0.27778 0.49446,0.49446 -17.75479,1.78976 -24.26032,1.72196 l -2.24896,-0.0235 1.40772,-0.3433 z m -4.15427,-2.3427 c -0.32441,-0.34531 -1.77623,-1.36627 -3.22625,-2.26879 -3.07995,-1.91701 -3.94105,-2.75599 -5.01344,-4.88468 -0.71886,-1.42692 -0.78772,-1.79746 -0.78772,-4.23865 0,-3.16843 0.40484,-4.80743 2.45792,-9.95104 0.78648,-1.97036 1.5791,-4.37294 1.7614,-5.33907 0.74631,-3.9553 -0.79434,-6.56828 -3.86243,-6.55077 -1.82332,0.0104 -3.22594,0.90697 -6.31001,4.03339 -1.60073,1.62271 -2.57694,2.50882 -2.16935,1.96913 0.40759,-0.53968 0.67003,-0.98125 0.58319,-0.98125 -0.32775,0 1.66087,-2.35927 2.87261,-3.40802 2.53454,-2.19363 5.32661,-2.90904 7.41244,-1.89931 0.97413,0.47157 1.33674,0.85689 1.91105,2.03074 0.63756,1.30313 0.69466,1.65362 0.56806,3.48715 -0.0774,1.12112 -0.32107,2.45512 -0.54147,2.96444 -0.81175,1.87593 -2.82709,7.06209 -3.39298,8.73125 -0.87218,2.57267 -0.984,6.28724 -0.24807,8.241 0.71099,1.88757 2.08226,3.43727 4.5309,5.12046 1.81657,1.24871 4.52765,3.5524 4.1963,3.56574 -0.0838,0.003 -0.41774,-0.2764 -0.74215,-0.62172 z m -66.04511,-6.61451 c -2.210148,-1.04017 -2.733642,-2.6209 -1.719793,-5.19305 0.291042,-0.73838 0.529163,-1.38112 0.529163,-1.42831 0,-0.0472 -0.299542,-0.0285 -0.665651,0.0414 -0.917853,0.17546 -8.320272,-1.46407 -10.04997,-2.22592 -0.771917,-0.33999 -0.761,-0.34498 0.396875,-0.1812 0.654844,0.0926 3.274219,0.55586 5.820833,1.02943 2.950588,0.54868 4.739733,0.77129 4.932153,0.61366 0.16606,-0.13605 1.09625,-1.7683 2.06707,-3.62723 2.19103,-4.19537 3.54762,-5.93035 5.32024,-6.80419 2.07108,-1.02098 4.15503,-1.24927 8.26159,-0.90507 3.56209,0.29856 8.63573,0.0542 11.33876,-0.54614 5.16456,-1.14702 11.04848,-1.59624 13.58852,-1.03743 1.32346,0.29116 3.24249,1.06874 3.06806,1.24317 -0.0618,0.0618 -0.37988,-0.0309 -0.7069,-0.20588 -1.80618,-0.96664 -7.40783,-0.82819 -12.67991,0.31337 l -4.10104,0.88801 -8.20209,0.0194 c -7.79284,0.0184 -8.26552,0.0477 -9.47362,0.58697 -1.82173,0.81315 -3.81757,2.99434 -5.14937,5.62757 -0.62108,1.22801 -1.48533,2.82805 -1.92054,3.55565 -1.73781,2.90534 -2.10959,3.80492 -2.10959,5.10446 0,0.9934 0.13612,1.41347 0.59892,1.84825 1.6238,1.52548 4.27965,1.79944 6.53738,0.67436 1.70808,-0.85117 4.26618,-3.31436 5.7914,-5.57655 1.10823,-1.6437 1.66434,-2.19643 1.06482,-1.05833 -0.65817,1.24942 -2.76601,4.02798 -3.96599,5.22796 -2.60813,2.60813 -5.74498,3.34578 -8.57132,2.01561 z m 5.15367,-3.47326 c 0.91802,-1.63038 1.31803,-2.62329 1.26857,-3.14884 -0.10262,-1.09032 -1.19052,-1.80677 -2.96728,-1.95411 -1.67736,-0.1391 -1.72767,-0.58579 -0.0659,-0.58518 1.41602,5.3e-4 2.86404,0.72279 3.3031,1.64757 0.46097,0.97094 0.0702,2.37596 -1.17226,4.21457 -1.61777,2.39406 -1.77118,2.32116 -0.36622,-0.17401 z m 10.72133,-0.28975 c -0.43656,-0.06 -1.4486,-0.18809 -2.24896,-0.28474 l -1.45521,-0.17575 1.05833,-0.20806 c 0.58209,-0.11444 2.84427,-0.18944 5.02709,-0.16668 4.68486,0.0489 4.76053,0.0233 8.06979,-2.72965 3.11579,-2.59198 6.18835,-4.07242 9.92187,-4.78061 6.09102,-1.15537 8.06388,-2.01728 11.64015,-5.08538 0.87229,-0.74835 1.34707,-1.05312 1.05506,-0.67727 -0.69746,0.89771 -3.49766,3.44306 -4.44763,4.04285 -1.41381,0.89264 -4.12854,1.74385 -6.85075,2.14806 -4.51448,0.67034 -7.31738,1.98755 -10.89954,5.12221 -0.79258,0.69358 -2.07357,1.6053 -2.84663,2.02606 -1.28104,0.69723 -1.6636,0.77001 -4.3177,0.82148 -1.60167,0.0311 -3.26931,0.007 -3.70587,-0.0525 z m 46.83852,-15.80571 c 0.28704,-0.19401 2.72455,-0.85785 5.41668,-1.47519 2.69214,-0.61734 6.32354,-1.57453 8.06979,-2.12708 4.61433,-1.46007 4.64905,-1.46736 3.43959,-0.72188 -2.11438,1.30324 -14.29417,4.6769 -16.88484,4.6769 -0.55382,0 -0.5545,-0.006 -0.0412,-0.35275 z"
       id="path828"
       inkscape:connector-curvature="0" />
  </g>
</svg>
