<?xml version="1.0" encoding="UTF-8" standalone="no"?>
<svg
   xmlns:dc="http://purl.org/dc/elements/1.1/"
   xmlns:cc="http://creativecommons.org/ns#"
   xmlns:rdf="http://www.w3.org/1999/02/22-rdf-syntax-ns#"
   xmlns:svg="http://www.w3.org/2000/svg"
   xmlns="http://www.w3.org/2000/svg"
   id="svg820"
   version="1.1"
   viewBox="0 0 56.042667 42.32135"
   height="42.32135mm"
   width="56.042667mm">
  <defs
     id="defs814" />
  <metadata
     id="metadata817">
    <rdf:RDF>
      <cc:Work
         rdf:about="">
        <dc:format>image/svg+xml</dc:format>
        <dc:type
           rdf:resource="http://purl.org/dc/dcmitype/StillImage" />
        <dc:title></dc:title>
      </cc:Work>
    </rdf:RDF>
  </metadata>
  <g
     transform="translate(-90.599551,-188.3061)"
     id="layer1">
    <path
       id="path833"
       d="m 128.94381,230.16211 -0.92328,-0.46074 0.0439,-2.24896 c 0.0803,-4.11457 0.69275,-7.11042 2.03991,-9.97801 l 1.21661,-2.58969 -1.37473,-0.20422 c -0.75609,-0.11232 -1.64023,-0.37818 -1.96475,-0.59082 -0.37592,-0.2463 -1.86811,-0.48207 -4.11193,-0.64968 -5.48375,-0.40962 -8.00762,-0.36475 -11.72398,0.20845 -1.89178,0.29178 -4.2271,0.60775 -5.18961,0.70216 l -1.75002,0.17166 0.34054,1.63643 c 0.18731,0.90004 0.71932,4.19176 1.18227,7.31494 l 0.84171,5.6785 -0.72624,0.62469 c -0.77881,0.66989 -1.71228,0.63573 -2.52049,-0.0923 -0.50638,-0.45612 -1.12538,-2.42287 -1.7018,-5.40716 -0.67654,-3.50258 -1.47184,-6.29787 -1.89075,-6.64554 -0.70536,-0.5854 -0.972149,0.19777 -1.201926,3.52827 -0.123306,1.78726 -0.294029,4.24939 -0.379381,5.47141 -0.129841,1.85898 -0.256839,2.32349 -0.777616,2.84427 -0.836779,0.83678 -1.584411,0.78354 -2.549503,-0.18155 l -0.803982,-0.80399 0.09673,-7.04722 0.09673,-7.04722 -1.379984,-0.31095 c -1.884571,-0.42465 -2.240355,-0.76407 -2.042713,-1.94881 0.418317,-2.50754 1.482062,-4.91707 3.066802,-6.94674 0.921224,-1.17987 0.92799,-1.28484 0.08281,-1.28484 -1.861783,0 -3.351787,-1.40417 -3.704347,-3.49096 -0.262191,-1.55189 0.716229,-3.34361 2.247554,-4.11582 1.498032,-0.75541 2.261966,-0.74935 3.801701,0.0302 1.416684,0.71722 1.385699,0.78304 0.930103,-1.9757 -0.198587,-1.20249 -0.215059,-1.93935 -0.04711,-2.1073 0.747802,-0.7478 12.166522,-2.40738 16.056682,-2.33366 1.39679,0.0265 2.41197,-0.0676 2.51416,-0.23295 0.11869,-0.19204 1.59543,-0.1616 4.801,0.099 7.96924,0.64776 15.02175,1.75974 15.2704,2.4077 0.0793,0.20663 -0.22305,2.24345 -0.67186,4.52628 -0.7535,3.83255 -1.89916,11.16687 -1.89916,12.15803 0,0.24673 1.0374,-0.59293 2.4779,-2.00558 1.36284,-1.33649 2.68486,-2.42999 2.93782,-2.42999 0.37011,0 0.30212,-0.17972 -0.34818,-0.92038 -1.51505,-1.72555 -1.4351,-4.09723 0.19299,-5.72533 2.97863,-2.97863 7.84362,-0.30922 7.05898,3.87324 -0.25251,1.34598 -1.56533,2.72183 -2.92345,3.06381 l -1.12548,0.2834 -0.17444,5.20273 c -0.096,2.86151 -0.30612,6.51855 -0.46704,8.12676 -0.28485,2.84665 -0.2705,3.02337 0.54248,6.67925 1.05876,4.76118 0.87277,5.61027 -1.22891,5.61027 -1.15587,0 -1.79602,-0.89765 -3.11,-4.36103 -1.09634,-2.8897 -1.18684,-3.31563 -1.18684,-5.5857 0,-1.3516 -0.10844,-2.52448 -0.24098,-2.60639 -0.34261,-0.21174 -2.91642,3.10383 -3.21701,4.14413 -0.138,0.4776 -0.55251,2.29712 -0.92112,4.04337 -0.40415,1.91461 -0.84959,3.34783 -1.12211,3.61037 -0.72371,0.69722 -1.44991,0.78355 -2.43905,0.28995 z m 13.11893,-0.1208 c 0.67302,-0.30664 0.69833,-0.38922 0.54731,-1.78593 -0.0871,-0.80543 -0.45696,-2.65505 -0.82194,-4.11026 -0.59246,-2.36218 -0.63658,-2.87275 -0.4115,-4.7625 0.35416,-2.97357 0.8336,-13.49293 0.63818,-14.0022 -0.20341,-0.53008 -1.20298,-0.7928 -2.15415,-0.5662 -0.44163,0.10521 -1.71553,1.19885 -3.24115,2.78251 -3.72112,3.86269 -5.70224,5.51626 -7.11386,5.93768 l -1.22051,0.36436 0.79375,0.22465 c 1.13887,0.32233 3.27294,0.25209 4.46116,-0.14682 0.56188,-0.18863 2.02039,-1.09628 3.24115,-2.017 2.28601,-1.72414 3.09773,-1.95928 1.0931,-0.31663 -1.8041,1.47832 -3.67928,2.58019 -4.92991,2.89684 -1.13445,0.28724 -1.18791,0.35044 -2.28829,2.7052 -1.41305,3.02384 -1.5888,3.70163 -2.0877,8.05168 -0.45018,3.92518 -0.35881,4.39117 0.91591,4.67114 1.20301,0.26423 2.01774,-0.38373 2.23506,-1.77754 0.0973,-0.62411 0.47491,-2.40955 0.8391,-3.96764 0.52035,-2.22613 0.86471,-3.1045 1.60783,-4.10104 1.12236,-1.50513 2.48304,-2.98795 2.74183,-2.98795 0.10165,0 0.24119,1.39899 0.31009,3.10886 0.10141,2.51674 0.2505,3.41121 0.78275,4.69635 0.3616,0.87313 0.87283,2.17774 1.13605,2.89913 0.46824,1.28331 1.43002,2.52483 1.95593,2.52483 0.14529,0 0.5817,-0.14468 0.96981,-0.32152 z m -35.39408,-0.52515 c 0.17462,-0.17462 0.31719,-0.68064 0.31681,-1.12448 -7.9e-4,-0.84864 -1.0253,-7.64149 -1.75044,-11.60514 l -0.42654,-2.33149 -1.81632,0.0742 c -1.46286,0.0597 -1.88171,-0.0137 -2.15232,-0.37749 -0.30845,-0.41462 -0.44241,-0.41935 -1.634802,-0.0578 -0.714352,0.21663 -1.815681,0.39388 -2.447397,0.39388 h -1.148574 l -0.04513,3.24114 c -0.148209,10.64431 -0.141556,10.78461 0.537461,11.33438 0.343544,0.27815 0.906346,0.50573 1.250672,0.50573 1.15576,0 1.371502,-0.81565 1.672886,-6.32465 0.308496,-5.639 0.583861,-6.66058 1.642624,-6.09395 0.77157,0.41293 1.151,1.48804 2.05486,5.82238 1.20541,5.78041 1.68897,6.8608 3.07074,6.8608 0.30688,0 0.70084,-0.14287 0.87547,-0.3175 z m -6.51501,-16.14389 c 1.87985,-0.66168 2.73069,-1.49942 2.49136,-2.453 -0.24388,-0.97168 -0.75417,-1.07191 -2.901144,-0.56983 -2.608506,0.61 -3.605622,0.58375 -3.605622,-0.0949 0,-0.29104 0.119062,-0.52917 0.264583,-0.52917 0.145521,0 0.264583,0.11906 0.264583,0.26458 0,0.34578 1.452563,0.33584 2.729225,-0.0187 0.910355,-0.25279 0.995115,-0.35003 0.863535,-0.99071 -0.0802,-0.39072 -0.278171,-1.8415 -0.439839,-3.22395 -0.161669,-1.38244 -0.329735,-2.55098 -0.373478,-2.59674 -0.20923,-0.21889 -2.093031,0.3399 -2.851917,0.84595 -1.737295,1.15849 -3.864124,5.08122 -4.271142,7.87771 l -0.179331,1.23212 1.002698,0.33092 c 1.295435,0.42753 3.697986,0.71843 4.710874,0.57038 0.436563,-0.0638 1.469589,-0.3539 2.295615,-0.64465 z m 11.2757,-0.0674 c 2.51651,-0.3321 4.64639,-0.67472 4.73306,-0.76139 0.0867,-0.0867 0.21727,-2.12545 0.29023,-4.5306 0.073,-2.40516 0.16869,-4.37302 0.21275,-4.37302 0.0441,0 0.47386,0.22851 0.95513,0.5078 1.70414,0.98896 3.16824,0.83311 4.47802,-0.47667 0.93161,-0.93161 1.0272,-1.15612 1.0272,-2.41238 0,-1.25626 -0.0956,-1.48077 -1.0272,-2.41237 -1.20527,-1.20527 -2.23966,-1.34064 -3.63841,-0.47616 -0.49039,0.30308 -1.02243,0.50745 -1.1823,0.45416 -0.1859,-0.062 -0.33274,-1.47666 -0.40737,-3.92449 -0.0642,-2.10518 -0.16754,-3.97642 -0.22969,-4.15832 -0.16311,-0.47738 -5.60683,-0.43073 -9.51274,0.0815 -3.20107,0.4198 -7.930423,1.31655 -8.367292,1.58655 -0.382548,0.23643 -0.324292,0.85651 0.862412,9.17985 1.05844,7.4237 1.15342,7.87135 1.67022,7.87135 1.84114,0 2.35594,2.29207 0.74204,3.30379 -0.88542,0.55506 -1.10552,1.07014 -0.53935,1.26226 0.64819,0.21994 5.42942,-0.12752 9.93329,-0.72188 z m 19.3901,-0.9166 c 2.56853,-1.70509 2.73804,-2.04202 3.40301,-6.76403 0.32789,-2.32834 0.94134,-6.01927 1.36323,-8.20209 0.89787,-4.64546 0.92299,-5.07722 0.3062,-5.26371 -1.98063,-0.59889 -10.04331,-1.63835 -16.60261,-2.14046 l -2.11666,-0.16203 0.0758,3.91539 c 0.0417,2.15347 0.12668,4.06275 0.18887,4.24284 0.0818,0.23679 0.37526,0.17276 1.05997,-0.23122 1.12376,-0.66304 2.36564,-0.55704 3.57667,0.30528 2.21628,1.57813 2.06897,4.65675 -0.30701,6.41628 -0.97162,0.71953 -2.84036,0.8909 -3.87585,0.35543 -0.45345,-0.23449 -0.8899,-0.42634 -0.96989,-0.42634 -0.08,0 -0.14543,1.84547 -0.14543,4.10104 v 4.10104 l 0.99219,0.0337 c 0.5457,0.0185 2.30188,0.11729 3.9026,0.2195 1.60073,0.10222 4.05087,0.20613 5.44475,0.23093 2.3979,0.0427 2.59729,0.003 3.70417,-0.73151 z m 13.46524,-8.34754 c 2.25872,-1.16803 2.67593,-4.29356 0.81154,-6.07976 -1.01,-0.96764 -3.16252,-1.23459 -4.47641,-0.55514 -2.51827,1.30225 -2.51793,5.33467 5.3e-4,6.57537 1.11483,0.54921 2.66856,0.57445 3.6643,0.0595 z M 97.382169,203.1214 c 1.253884,-0.76453 1.7615,-1.92508 1.547529,-3.53806 -0.223303,-1.68335 -0.504563,-2.19741 -1.55157,-2.83582 -2.653554,-1.61798 -6.02105,0.49201 -5.675668,3.55623 0.302642,2.68504 3.387403,4.21536 5.679709,2.81765 z m 1.931075,-0.84855 c 0,-0.3153 -0.03369,-0.52366 -0.07487,-0.46303 -0.04118,0.0606 -0.234349,0.31861 -0.42927,0.57327 -0.303366,0.39634 -0.292584,0.46302 0.07487,0.46302 0.263887,0 0.429271,-0.22086 0.42927,-0.57326 z m 33.274436,27.9028 c 0.32912,-0.0633 0.80537,-0.0609 1.05834,0.005 0.25296,0.0662 -0.0163,0.118 -0.5984,0.11507 -0.58209,-0.003 -0.78906,-0.0571 -0.45994,-0.12041 z m -39.293707,-0.52442 c 0.254661,-0.0666 0.67138,-0.0666 0.926041,0 0.254662,0.0666 0.0463,0.121 -0.46302,0.121 -0.509323,0 -0.717683,-0.0545 -0.463021,-0.121 z m 8.731247,0 c 0.25466,-0.0666 0.67138,-0.0666 0.92604,0 0.25467,0.0666 0.0463,0.121 -0.46302,0.121 -0.50932,0 -0.71768,-0.0545 -0.46302,-0.121 z m 41.37989,-13.70824 c 0.0913,-0.72761 0.25839,-2.69214 0.37139,-4.36563 l 0.20546,-3.04271 -0.0871,3.57188 c -0.0479,1.96453 -0.21503,3.92906 -0.37139,4.36562 -0.24618,0.68736 -0.26205,0.61644 -0.11836,-0.52916 z m -29.60593,-0.84819 c 0.32742,-0.0631 0.8632,-0.0631 1.19063,0 0.32742,0.0631 0.0595,0.11467 -0.59532,0.11467 -0.65484,0 -0.92273,-0.0516 -0.59531,-0.11467 z m 2.24896,-0.26024 c 0.25466,-0.0665 0.67138,-0.0665 0.92604,0 0.25466,0.0666 0.0463,0.121 -0.46302,0.121 -0.50932,0 -0.71768,-0.0545 -0.46302,-0.121 z m -25.448289,-4.92794 c -0.02016,-0.84082 0.982379,-3.35634 1.337641,-3.35634 0.333085,0 0.290114,0.19451 -0.212401,0.96144 -0.244421,0.37304 -0.593572,1.23205 -0.775892,1.90892 -0.260307,0.96641 -0.335325,1.07076 -0.349348,0.48598 z m 46.944309,-17.66607 c 7.9e-4,-0.71448 0.0907,-1.29942 0.19981,-1.29987 0.25591,-10e-4 0.25144,1.88752 -0.005,2.29124 -0.10766,0.16923 -0.19514,-0.27688 -0.19438,-0.99137 z m -32.41008,-3.3249 c 1.46186,-0.52535 8.88048,-0.8428 9.32429,-0.399 0.19887,0.19888 -0.52606,0.23652 -2.4709,0.1283 -1.61836,-0.09 -3.51542,-0.0271 -4.60444,0.15283 -3.44367,0.56894 -3.51443,0.57264 -2.24895,0.11787 z"
       style="fill:#532b6d;fill-opacity:1;stroke-width:0.26458335" />
  </g>
</svg>
